<?xml version="1.0" encoding="utf-8"?>
<svg xmlns="http://www.w3.org/2000/svg" xmlns:xlink="http://www.w3.org/1999/xlink" width="600" height="400" viewBox="0 0 2400 1600">
<defs>
  <clipPath id="clip750">
    <rect x="0" y="0" width="2400" height="1600"/>
  </clipPath>
</defs>
<path clip-path="url(#clip750)" d="
M0 1600 L2400 1600 L2400 0 L0 0  Z
  " fill="#ffffff" fill-rule="evenodd" fill-opacity="1"/>
<defs>
  <clipPath id="clip751">
    <rect x="480" y="0" width="1681" height="1600"/>
  </clipPath>
</defs>
<path clip-path="url(#clip750)" d="
M234.125 1348.64 L2352.76 1348.64 L2352.76 47.2441 L234.125 47.2441  Z
  " fill="#ffffff" fill-rule="evenodd" fill-opacity="1"/>
<defs>
  <clipPath id="clip752">
    <rect x="234" y="47" width="2120" height="1302"/>
  </clipPath>
</defs>
<polyline clip-path="url(#clip752)" style="stroke:#000000; stroke-linecap:round; stroke-linejoin:round; stroke-width:2; stroke-opacity:0.1; fill:none" points="
  294.087,1348.64 294.087,47.2441 
  "/>
<polyline clip-path="url(#clip752)" style="stroke:#000000; stroke-linecap:round; stroke-linejoin:round; stroke-width:2; stroke-opacity:0.1; fill:none" points="
  399.282,1348.64 399.282,47.2441 
  "/>
<polyline clip-path="url(#clip752)" style="stroke:#000000; stroke-linecap:round; stroke-linejoin:round; stroke-width:2; stroke-opacity:0.1; fill:none" points="
  504.477,1348.64 504.477,47.2441 
  "/>
<polyline clip-path="url(#clip752)" style="stroke:#000000; stroke-linecap:round; stroke-linejoin:round; stroke-width:2; stroke-opacity:0.1; fill:none" points="
  609.672,1348.64 609.672,47.2441 
  "/>
<polyline clip-path="url(#clip752)" style="stroke:#000000; stroke-linecap:round; stroke-linejoin:round; stroke-width:2; stroke-opacity:0.1; fill:none" points="
  714.867,1348.64 714.867,47.2441 
  "/>
<polyline clip-path="url(#clip752)" style="stroke:#000000; stroke-linecap:round; stroke-linejoin:round; stroke-width:2; stroke-opacity:0.1; fill:none" points="
  820.062,1348.64 820.062,47.2441 
  "/>
<polyline clip-path="url(#clip752)" style="stroke:#000000; stroke-linecap:round; stroke-linejoin:round; stroke-width:2; stroke-opacity:0.1; fill:none" points="
  925.258,1348.64 925.258,47.2441 
  "/>
<polyline clip-path="url(#clip752)" style="stroke:#000000; stroke-linecap:round; stroke-linejoin:round; stroke-width:2; stroke-opacity:0.1; fill:none" points="
  1030.45,1348.64 1030.45,47.2441 
  "/>
<polyline clip-path="url(#clip752)" style="stroke:#000000; stroke-linecap:round; stroke-linejoin:round; stroke-width:2; stroke-opacity:0.1; fill:none" points="
  1135.65,1348.64 1135.65,47.2441 
  "/>
<polyline clip-path="url(#clip752)" style="stroke:#000000; stroke-linecap:round; stroke-linejoin:round; stroke-width:2; stroke-opacity:0.1; fill:none" points="
  1240.84,1348.64 1240.84,47.2441 
  "/>
<polyline clip-path="url(#clip752)" style="stroke:#000000; stroke-linecap:round; stroke-linejoin:round; stroke-width:2; stroke-opacity:0.1; fill:none" points="
  1346.04,1348.64 1346.04,47.2441 
  "/>
<polyline clip-path="url(#clip752)" style="stroke:#000000; stroke-linecap:round; stroke-linejoin:round; stroke-width:2; stroke-opacity:0.1; fill:none" points="
  1451.23,1348.64 1451.23,47.2441 
  "/>
<polyline clip-path="url(#clip752)" style="stroke:#000000; stroke-linecap:round; stroke-linejoin:round; stroke-width:2; stroke-opacity:0.1; fill:none" points="
  1556.43,1348.64 1556.43,47.2441 
  "/>
<polyline clip-path="url(#clip752)" style="stroke:#000000; stroke-linecap:round; stroke-linejoin:round; stroke-width:2; stroke-opacity:0.1; fill:none" points="
  1661.62,1348.64 1661.62,47.2441 
  "/>
<polyline clip-path="url(#clip752)" style="stroke:#000000; stroke-linecap:round; stroke-linejoin:round; stroke-width:2; stroke-opacity:0.1; fill:none" points="
  1766.82,1348.64 1766.82,47.2441 
  "/>
<polyline clip-path="url(#clip752)" style="stroke:#000000; stroke-linecap:round; stroke-linejoin:round; stroke-width:2; stroke-opacity:0.1; fill:none" points="
  1872.01,1348.64 1872.01,47.2441 
  "/>
<polyline clip-path="url(#clip752)" style="stroke:#000000; stroke-linecap:round; stroke-linejoin:round; stroke-width:2; stroke-opacity:0.1; fill:none" points="
  1977.21,1348.64 1977.21,47.2441 
  "/>
<polyline clip-path="url(#clip752)" style="stroke:#000000; stroke-linecap:round; stroke-linejoin:round; stroke-width:2; stroke-opacity:0.1; fill:none" points="
  2082.4,1348.64 2082.4,47.2441 
  "/>
<polyline clip-path="url(#clip752)" style="stroke:#000000; stroke-linecap:round; stroke-linejoin:round; stroke-width:2; stroke-opacity:0.1; fill:none" points="
  2187.6,1348.64 2187.6,47.2441 
  "/>
<polyline clip-path="url(#clip752)" style="stroke:#000000; stroke-linecap:round; stroke-linejoin:round; stroke-width:2; stroke-opacity:0.1; fill:none" points="
  2292.79,1348.64 2292.79,47.2441 
  "/>
<polyline clip-path="url(#clip750)" style="stroke:#000000; stroke-linecap:round; stroke-linejoin:round; stroke-width:4; stroke-opacity:1; fill:none" points="
  234.125,1348.64 2352.76,1348.64 
  "/>
<polyline clip-path="url(#clip750)" style="stroke:#000000; stroke-linecap:round; stroke-linejoin:round; stroke-width:4; stroke-opacity:1; fill:none" points="
  294.087,1348.64 294.087,1329.74 
  "/>
<polyline clip-path="url(#clip750)" style="stroke:#000000; stroke-linecap:round; stroke-linejoin:round; stroke-width:4; stroke-opacity:1; fill:none" points="
  399.282,1348.64 399.282,1329.74 
  "/>
<polyline clip-path="url(#clip750)" style="stroke:#000000; stroke-linecap:round; stroke-linejoin:round; stroke-width:4; stroke-opacity:1; fill:none" points="
  504.477,1348.64 504.477,1329.74 
  "/>
<polyline clip-path="url(#clip750)" style="stroke:#000000; stroke-linecap:round; stroke-linejoin:round; stroke-width:4; stroke-opacity:1; fill:none" points="
  609.672,1348.64 609.672,1329.74 
  "/>
<polyline clip-path="url(#clip750)" style="stroke:#000000; stroke-linecap:round; stroke-linejoin:round; stroke-width:4; stroke-opacity:1; fill:none" points="
  714.867,1348.64 714.867,1329.74 
  "/>
<polyline clip-path="url(#clip750)" style="stroke:#000000; stroke-linecap:round; stroke-linejoin:round; stroke-width:4; stroke-opacity:1; fill:none" points="
  820.062,1348.64 820.062,1329.74 
  "/>
<polyline clip-path="url(#clip750)" style="stroke:#000000; stroke-linecap:round; stroke-linejoin:round; stroke-width:4; stroke-opacity:1; fill:none" points="
  925.258,1348.64 925.258,1329.74 
  "/>
<polyline clip-path="url(#clip750)" style="stroke:#000000; stroke-linecap:round; stroke-linejoin:round; stroke-width:4; stroke-opacity:1; fill:none" points="
  1030.45,1348.64 1030.45,1329.74 
  "/>
<polyline clip-path="url(#clip750)" style="stroke:#000000; stroke-linecap:round; stroke-linejoin:round; stroke-width:4; stroke-opacity:1; fill:none" points="
  1135.65,1348.64 1135.65,1329.74 
  "/>
<polyline clip-path="url(#clip750)" style="stroke:#000000; stroke-linecap:round; stroke-linejoin:round; stroke-width:4; stroke-opacity:1; fill:none" points="
  1240.84,1348.64 1240.84,1329.74 
  "/>
<polyline clip-path="url(#clip750)" style="stroke:#000000; stroke-linecap:round; stroke-linejoin:round; stroke-width:4; stroke-opacity:1; fill:none" points="
  1346.04,1348.64 1346.04,1329.74 
  "/>
<polyline clip-path="url(#clip750)" style="stroke:#000000; stroke-linecap:round; stroke-linejoin:round; stroke-width:4; stroke-opacity:1; fill:none" points="
  1451.23,1348.64 1451.23,1329.74 
  "/>
<polyline clip-path="url(#clip750)" style="stroke:#000000; stroke-linecap:round; stroke-linejoin:round; stroke-width:4; stroke-opacity:1; fill:none" points="
  1556.43,1348.64 1556.43,1329.74 
  "/>
<polyline clip-path="url(#clip750)" style="stroke:#000000; stroke-linecap:round; stroke-linejoin:round; stroke-width:4; stroke-opacity:1; fill:none" points="
  1661.62,1348.64 1661.62,1329.74 
  "/>
<polyline clip-path="url(#clip750)" style="stroke:#000000; stroke-linecap:round; stroke-linejoin:round; stroke-width:4; stroke-opacity:1; fill:none" points="
  1766.82,1348.64 1766.82,1329.74 
  "/>
<polyline clip-path="url(#clip750)" style="stroke:#000000; stroke-linecap:round; stroke-linejoin:round; stroke-width:4; stroke-opacity:1; fill:none" points="
  1872.01,1348.64 1872.01,1329.74 
  "/>
<polyline clip-path="url(#clip750)" style="stroke:#000000; stroke-linecap:round; stroke-linejoin:round; stroke-width:4; stroke-opacity:1; fill:none" points="
  1977.21,1348.64 1977.21,1329.74 
  "/>
<polyline clip-path="url(#clip750)" style="stroke:#000000; stroke-linecap:round; stroke-linejoin:round; stroke-width:4; stroke-opacity:1; fill:none" points="
  2082.4,1348.64 2082.4,1329.74 
  "/>
<polyline clip-path="url(#clip750)" style="stroke:#000000; stroke-linecap:round; stroke-linejoin:round; stroke-width:4; stroke-opacity:1; fill:none" points="
  2187.6,1348.64 2187.6,1329.74 
  "/>
<polyline clip-path="url(#clip750)" style="stroke:#000000; stroke-linecap:round; stroke-linejoin:round; stroke-width:4; stroke-opacity:1; fill:none" points="
  2292.79,1348.64 2292.79,1329.74 
  "/>
<path clip-path="url(#clip750)" d="M153.836 1499.91 L160.776 1492.97 L163.117 1495.31 L159.189 1499.24 L184.396 1524.45 L188.324 1520.52 L190.665 1522.86 L183.725 1529.8 L153.836 1499.91 Z" fill="#000000" fill-rule="evenodd" fill-opacity="1" /><path clip-path="url(#clip750)" d="M193.153 1505.97 L204.692 1494.43 L207.475 1497.21 L191.958 1512.73 L189.175 1509.95 Q189.11 1506.12 189.077 1499.6 Q189.044 1493.06 188.93 1491.27 Q188.733 1487.9 188.128 1486.05 Q187.522 1484.17 186.327 1482.97 Q184.379 1481.03 181.777 1481.17 Q179.191 1481.3 176.997 1483.5 Q175.442 1485.05 174.247 1487.33 Q173.069 1489.59 172.201 1492.65 L168.862 1489.31 Q170.057 1486.51 171.383 1484.36 Q172.709 1482.22 174.149 1480.78 Q177.947 1476.98 182.104 1476.62 Q186.262 1476.26 189.437 1479.44 Q190.943 1480.94 191.729 1482.87 Q192.514 1484.77 192.858 1488.1 Q192.923 1488.98 193.005 1493.45 Q193.071 1497.9 193.153 1505.97 Z" fill="#000000" fill-rule="evenodd" fill-opacity="1" /><path clip-path="url(#clip750)" d="M210.601 1485.77 L214.055 1482.32 L216.87 1485.13 L219.423 1493.06 L217.312 1495.17 L213.416 1488.59 L210.601 1485.77 Z" fill="#000000" fill-rule="evenodd" fill-opacity="1" /><path clip-path="url(#clip750)" d="M211.321 1444.49 L224.301 1431.51 L227.084 1434.29 L217.132 1444.25 L223.123 1450.24 Q223.597 1449.27 224.203 1448.44 Q224.792 1447.58 225.512 1446.86 Q229.604 1442.77 234.237 1442.63 Q238.869 1442.48 242.699 1446.31 Q246.644 1450.25 246.382 1454.9 Q246.104 1459.53 241.635 1464 Q240.096 1465.54 238.23 1466.88 Q236.381 1468.21 234.155 1469.39 L230.832 1466.06 Q233.107 1465.39 235.071 1464.21 Q237.036 1463.04 238.787 1461.29 Q241.619 1458.45 241.782 1455.31 Q241.946 1452.17 239.393 1449.61 Q236.839 1447.06 233.696 1447.22 Q230.554 1447.39 227.722 1450.22 Q226.396 1451.55 225.365 1453.17 Q224.35 1454.77 223.597 1456.77 L211.321 1444.49 Z" fill="#000000" fill-rule="evenodd" fill-opacity="1" /><path clip-path="url(#clip750)" d="M253.24 1443.13 L256.694 1439.68 L259.509 1442.49 L262.062 1450.42 L259.951 1452.53 L256.055 1445.95 L253.24 1443.13 Z" fill="#000000" fill-rule="evenodd" fill-opacity="1" /><path clip-path="url(#clip750)" d="M265.893 1395.68 L270.59 1417.07 L278.938 1408.73 L265.893 1395.68 M262.144 1393.67 L266.302 1389.51 L282.228 1405.44 L285.714 1401.95 L288.464 1404.7 L284.978 1408.19 L290.739 1413.95 L287.449 1417.24 L281.688 1411.48 L270.656 1422.51 L267.464 1419.32 L262.144 1393.67 Z" fill="#000000" fill-rule="evenodd" fill-opacity="1" /><path clip-path="url(#clip750)" d="M280.837 1372.91 L310.725 1402.8 L303.785 1409.74 L301.444 1407.4 L305.356 1403.49 L280.149 1378.28 L276.237 1382.19 L273.897 1379.85 L280.837 1372.91 Z" fill="#000000" fill-rule="evenodd" fill-opacity="1" /><path clip-path="url(#clip750)" d="M259.032 1499.91 L265.972 1492.97 L268.312 1495.31 L264.384 1499.24 L289.591 1524.45 L293.519 1520.52 L295.86 1522.86 L288.92 1529.8 L259.032 1499.91 Z" fill="#000000" fill-rule="evenodd" fill-opacity="1" /><path clip-path="url(#clip750)" d="M298.348 1505.97 L309.887 1494.43 L312.67 1497.21 L297.153 1512.73 L294.37 1509.95 Q294.305 1506.12 294.272 1499.6 Q294.239 1493.06 294.125 1491.27 Q293.928 1487.9 293.323 1486.05 Q292.717 1484.17 291.522 1482.97 Q289.574 1481.03 286.972 1481.17 Q284.386 1481.3 282.192 1483.5 Q280.637 1485.05 279.443 1487.33 Q278.264 1489.59 277.397 1492.65 L274.058 1489.31 Q275.252 1486.51 276.578 1484.36 Q277.904 1482.22 279.344 1480.78 Q283.142 1476.98 287.299 1476.62 Q291.457 1476.26 294.632 1479.44 Q296.138 1480.94 296.924 1482.87 Q297.709 1484.77 298.053 1488.1 Q298.119 1488.98 298.2 1493.45 Q298.266 1497.9 298.348 1505.97 Z" fill="#000000" fill-rule="evenodd" fill-opacity="1" /><path clip-path="url(#clip750)" d="M315.796 1485.77 L319.25 1482.32 L322.065 1485.13 L324.619 1493.06 L322.507 1495.17 L318.612 1488.59 L315.796 1485.77 Z" fill="#000000" fill-rule="evenodd" fill-opacity="1" /><path clip-path="url(#clip750)" d="M334.865 1447.95 Q332.639 1450.17 332.852 1453 Q333.081 1455.82 335.733 1458.47 Q338.368 1461.11 341.2 1461.35 Q344.031 1461.56 346.257 1459.34 Q348.483 1457.11 348.254 1454.3 Q348.025 1451.45 345.39 1448.81 Q342.738 1446.16 339.906 1445.95 Q337.091 1445.72 334.865 1447.95 M331.068 1431.02 L334.079 1434.03 Q332.246 1434.69 330.658 1435.65 Q329.087 1436.6 327.843 1437.85 Q324.57 1441.12 325.044 1445.06 Q325.535 1448.99 329.758 1453.71 Q329.3 1451.32 330.004 1449.11 Q330.691 1446.88 332.443 1445.13 Q336.125 1441.45 340.496 1441.56 Q344.866 1441.64 348.713 1445.49 Q352.477 1449.25 352.526 1453.76 Q352.575 1458.26 348.876 1461.96 Q344.637 1466.2 339.154 1465.2 Q333.654 1464.18 327.483 1458.01 Q321.689 1452.22 321.001 1446.03 Q320.297 1439.83 324.93 1435.19 Q326.174 1433.95 327.679 1432.94 Q329.202 1431.9 331.068 1431.02 Z" fill="#000000" fill-rule="evenodd" fill-opacity="1" /><path clip-path="url(#clip750)" d="M358.435 1443.13 L361.889 1439.68 L364.704 1442.49 L367.258 1450.42 L365.146 1452.53 L361.251 1445.95 L358.435 1443.13 Z" fill="#000000" fill-rule="evenodd" fill-opacity="1" /><path clip-path="url(#clip750)" d="M371.088 1395.68 L375.785 1417.07 L384.133 1408.73 L371.088 1395.68 M367.339 1393.67 L371.497 1389.51 L387.423 1405.44 L390.91 1401.95 L393.659 1404.7 L390.173 1408.19 L395.935 1413.95 L392.645 1417.24 L386.883 1411.48 L375.851 1422.51 L372.659 1419.32 L367.339 1393.67 Z" fill="#000000" fill-rule="evenodd" fill-opacity="1" /><path clip-path="url(#clip750)" d="M386.032 1372.91 L415.92 1402.8 L408.98 1409.74 L406.639 1407.4 L410.551 1403.49 L385.344 1378.28 L381.432 1382.19 L379.092 1379.85 L386.032 1372.91 Z" fill="#000000" fill-rule="evenodd" fill-opacity="1" /><path clip-path="url(#clip750)" d="M364.227 1499.91 L371.167 1492.97 L373.507 1495.31 L369.579 1499.24 L394.786 1524.45 L398.714 1520.52 L401.055 1522.86 L394.115 1529.8 L364.227 1499.91 Z" fill="#000000" fill-rule="evenodd" fill-opacity="1" /><path clip-path="url(#clip750)" d="M403.543 1505.97 L415.082 1494.43 L417.865 1497.21 L402.348 1512.73 L399.566 1509.95 Q399.5 1506.12 399.467 1499.6 Q399.435 1493.06 399.32 1491.27 Q399.124 1487.9 398.518 1486.05 Q397.912 1484.17 396.717 1482.97 Q394.77 1481.03 392.167 1481.17 Q389.581 1481.3 387.388 1483.5 Q385.833 1485.05 384.638 1487.33 Q383.459 1489.59 382.592 1492.65 L379.253 1489.31 Q380.448 1486.51 381.773 1484.36 Q383.099 1482.22 384.54 1480.78 Q388.337 1476.98 392.494 1476.62 Q396.652 1476.26 399.827 1479.44 Q401.333 1480.94 402.119 1482.87 Q402.905 1484.77 403.248 1488.1 Q403.314 1488.98 403.396 1493.45 Q403.461 1497.9 403.543 1505.97 Z" fill="#000000" fill-rule="evenodd" fill-opacity="1" /><path clip-path="url(#clip750)" d="M420.991 1485.77 L424.445 1482.32 L427.26 1485.13 L429.814 1493.06 L427.702 1495.17 L423.807 1488.59 L420.991 1485.77 Z" fill="#000000" fill-rule="evenodd" fill-opacity="1" /><path clip-path="url(#clip750)" d="M420.844 1445.36 L436.557 1429.65 L437.965 1431.05 L452.124 1462.95 L448.67 1466.41 L435.363 1436.41 L423.627 1448.14 L420.844 1445.36 Z" fill="#000000" fill-rule="evenodd" fill-opacity="1" /><path clip-path="url(#clip750)" d="M463.63 1443.13 L467.084 1439.68 L469.899 1442.49 L472.453 1450.42 L470.341 1452.53 L466.446 1445.95 L463.63 1443.13 Z" fill="#000000" fill-rule="evenodd" fill-opacity="1" /><path clip-path="url(#clip750)" d="M476.283 1395.68 L480.981 1417.07 L489.328 1408.73 L476.283 1395.68 M472.535 1393.67 L476.692 1389.51 L492.618 1405.44 L496.105 1401.95 L498.855 1404.7 L495.368 1408.19 L501.13 1413.95 L497.84 1417.24 L492.078 1411.48 L481.046 1422.51 L477.854 1419.32 L472.535 1393.67 Z" fill="#000000" fill-rule="evenodd" fill-opacity="1" /><path clip-path="url(#clip750)" d="M491.227 1372.91 L521.115 1402.8 L514.175 1409.74 L511.834 1407.4 L515.746 1403.49 L490.54 1378.28 L486.628 1382.19 L484.287 1379.85 L491.227 1372.91 Z" fill="#000000" fill-rule="evenodd" fill-opacity="1" /><path clip-path="url(#clip750)" d="M469.422 1499.91 L476.362 1492.97 L478.703 1495.31 L474.774 1499.24 L499.981 1524.45 L503.91 1520.52 L506.25 1522.86 L499.31 1529.8 L469.422 1499.91 Z" fill="#000000" fill-rule="evenodd" fill-opacity="1" /><path clip-path="url(#clip750)" d="M508.738 1505.97 L520.278 1494.43 L523.06 1497.21 L507.543 1512.73 L504.761 1509.95 Q504.695 1506.12 504.662 1499.6 Q504.63 1493.06 504.515 1491.27 Q504.319 1487.9 503.713 1486.05 Q503.107 1484.17 501.913 1482.97 Q499.965 1481.03 497.362 1481.17 Q494.776 1481.3 492.583 1483.5 Q491.028 1485.05 489.833 1487.33 Q488.654 1489.59 487.787 1492.65 L484.448 1489.31 Q485.643 1486.51 486.969 1484.36 Q488.294 1482.22 489.735 1480.78 Q493.532 1476.98 497.69 1476.62 Q501.847 1476.26 505.023 1479.44 Q506.528 1480.94 507.314 1482.87 Q508.1 1484.77 508.443 1488.1 Q508.509 1488.98 508.591 1493.45 Q508.656 1497.9 508.738 1505.97 Z" fill="#000000" fill-rule="evenodd" fill-opacity="1" /><path clip-path="url(#clip750)" d="M526.187 1485.77 L529.64 1482.32 L532.456 1485.13 L535.009 1493.06 L532.897 1495.17 L529.002 1488.59 L526.187 1485.77 Z" fill="#000000" fill-rule="evenodd" fill-opacity="1" /><path clip-path="url(#clip750)" d="M546.778 1450.29 Q544.421 1452.64 544.322 1455.26 Q544.241 1457.86 546.45 1460.07 Q548.66 1462.28 551.263 1462.2 Q553.881 1462.1 556.238 1459.75 Q558.595 1457.39 558.694 1454.77 Q558.775 1452.14 556.582 1449.94 Q554.372 1447.73 551.754 1447.83 Q549.151 1447.91 546.778 1450.29 M542.064 1452.18 Q539.412 1453.79 536.76 1453.53 Q534.125 1453.25 532.03 1451.15 Q529.1 1448.22 529.477 1444.44 Q529.869 1440.64 533.503 1437.01 Q537.153 1433.36 540.934 1432.98 Q544.715 1432.61 547.645 1435.54 Q549.74 1437.63 550.002 1440.28 Q550.28 1442.92 548.693 1445.56 Q551.639 1443.72 554.585 1444.02 Q557.548 1444.29 559.889 1446.64 Q563.44 1450.19 563.162 1454.26 Q562.9 1458.32 558.857 1462.37 Q554.814 1466.41 550.739 1466.69 Q546.679 1466.95 543.128 1463.4 Q540.787 1461.06 540.509 1458.09 Q540.23 1455.13 542.064 1452.18 M535.631 1448.17 Q537.53 1450.07 539.772 1449.96 Q542.031 1449.83 544.175 1447.68 Q546.303 1445.56 546.434 1443.3 Q546.581 1441.02 544.683 1439.12 Q542.784 1437.22 540.509 1437.37 Q538.25 1437.5 536.122 1439.63 Q533.978 1441.77 533.847 1444.03 Q533.732 1446.28 535.631 1448.17 Z" fill="#000000" fill-rule="evenodd" fill-opacity="1" /><path clip-path="url(#clip750)" d="M568.826 1443.13 L572.279 1439.68 L575.094 1442.49 L577.648 1450.42 L575.536 1452.53 L571.641 1445.95 L568.826 1443.13 Z" fill="#000000" fill-rule="evenodd" fill-opacity="1" /><path clip-path="url(#clip750)" d="M569.546 1401.85 L582.526 1388.87 L585.308 1391.66 L575.356 1401.61 L581.347 1407.6 Q581.822 1406.63 582.427 1405.8 Q583.017 1404.95 583.737 1404.23 Q587.829 1400.13 592.461 1399.99 Q597.093 1399.84 600.923 1403.67 Q604.868 1407.61 604.606 1412.26 Q604.328 1416.89 599.859 1421.36 Q598.321 1422.9 596.455 1424.24 Q594.605 1425.57 592.379 1426.75 L589.057 1423.43 Q591.332 1422.75 593.296 1421.58 Q595.26 1420.4 597.011 1418.65 Q599.843 1415.81 600.007 1412.67 Q600.17 1409.53 597.617 1406.98 Q595.064 1404.42 591.921 1404.59 Q588.778 1404.75 585.947 1407.58 Q584.621 1408.91 583.59 1410.53 Q582.575 1412.13 581.822 1414.13 L569.546 1401.85 Z" fill="#000000" fill-rule="evenodd" fill-opacity="1" /><path clip-path="url(#clip750)" d="M596.422 1372.91 L626.31 1402.8 L619.37 1409.74 L617.03 1407.4 L620.942 1403.49 L595.735 1378.28 L591.823 1382.19 L589.482 1379.85 L596.422 1372.91 Z" fill="#000000" fill-rule="evenodd" fill-opacity="1" /><path clip-path="url(#clip750)" d="M574.617 1499.91 L581.557 1492.97 L583.898 1495.31 L579.969 1499.24 L605.176 1524.45 L609.105 1520.52 L611.445 1522.86 L604.505 1529.8 L574.617 1499.91 Z" fill="#000000" fill-rule="evenodd" fill-opacity="1" /><path clip-path="url(#clip750)" d="M610.709 1488.41 Q613.59 1486.54 616.519 1486.82 Q619.466 1487.08 621.823 1489.44 Q625.44 1493.06 624.933 1497.52 Q624.425 1501.99 619.842 1506.58 Q618.304 1508.11 616.356 1509.44 Q614.441 1510.77 612.1 1511.9 L608.908 1508.7 Q611.085 1508.13 613.131 1506.9 Q615.177 1505.68 616.961 1503.89 Q620.071 1500.78 620.464 1497.93 Q620.873 1495.07 618.533 1492.73 Q616.372 1490.57 613.639 1490.88 Q610.905 1491.16 608.204 1493.86 L605.356 1496.71 L602.639 1493.99 L605.618 1491.01 Q608.057 1488.57 608.384 1486.31 Q608.695 1484.04 606.862 1482.2 Q604.98 1480.32 602.639 1480.66 Q600.299 1480.98 597.811 1483.46 Q596.452 1484.82 595.192 1486.67 Q593.931 1488.52 592.687 1491.01 L589.741 1488.06 Q591.1 1485.66 592.475 1483.76 Q593.866 1481.84 595.323 1480.39 Q599.087 1476.62 602.999 1476.15 Q606.895 1475.66 609.809 1478.57 Q611.838 1480.6 612.084 1483.17 Q612.313 1485.72 610.709 1488.41 Z" fill="#000000" fill-rule="evenodd" fill-opacity="1" /><path clip-path="url(#clip750)" d="M631.382 1485.77 L634.835 1482.32 L637.651 1485.13 L640.204 1493.06 L638.093 1495.17 L634.197 1488.59 L631.382 1485.77 Z" fill="#000000" fill-rule="evenodd" fill-opacity="1" /><path clip-path="url(#clip750)" d="M632.102 1444.49 L645.082 1431.51 L647.864 1434.29 L637.913 1444.25 L643.903 1450.24 Q644.378 1449.27 644.984 1448.44 Q645.573 1447.58 646.293 1446.86 Q650.385 1442.77 655.017 1442.63 Q659.649 1442.48 663.48 1446.31 Q667.424 1450.25 667.162 1454.9 Q666.884 1459.53 662.416 1464 Q660.877 1465.54 659.011 1466.88 Q657.161 1468.21 654.935 1469.39 L651.613 1466.06 Q653.888 1465.39 655.852 1464.21 Q657.816 1463.04 659.568 1461.29 Q662.399 1458.45 662.563 1455.31 Q662.727 1452.17 660.173 1449.61 Q657.62 1447.06 654.477 1447.22 Q651.334 1447.39 648.503 1450.22 Q647.177 1451.55 646.146 1453.17 Q645.131 1454.77 644.378 1456.77 L632.102 1444.49 Z" fill="#000000" fill-rule="evenodd" fill-opacity="1" /><path clip-path="url(#clip750)" d="M674.021 1443.13 L677.474 1439.68 L680.29 1442.49 L682.843 1450.42 L680.732 1452.53 L676.836 1445.95 L674.021 1443.13 Z" fill="#000000" fill-rule="evenodd" fill-opacity="1" /><path clip-path="url(#clip750)" d="M686.673 1395.68 L691.371 1417.07 L699.719 1408.73 L686.673 1395.68 M682.925 1393.67 L687.082 1389.51 L703.009 1405.44 L706.495 1401.95 L709.245 1404.7 L705.758 1408.19 L711.52 1413.95 L708.23 1417.24 L702.468 1411.48 L691.436 1422.51 L688.245 1419.32 L682.925 1393.67 Z" fill="#000000" fill-rule="evenodd" fill-opacity="1" /><path clip-path="url(#clip750)" d="M701.617 1372.91 L731.506 1402.8 L724.565 1409.74 L722.225 1407.4 L726.137 1403.49 L700.93 1378.28 L697.018 1382.19 L694.677 1379.85 L701.617 1372.91 Z" fill="#000000" fill-rule="evenodd" fill-opacity="1" /><path clip-path="url(#clip750)" d="M679.812 1499.91 L686.752 1492.97 L689.093 1495.31 L685.165 1499.24 L710.371 1524.45 L714.3 1520.52 L716.64 1522.86 L709.7 1529.8 L679.812 1499.91 Z" fill="#000000" fill-rule="evenodd" fill-opacity="1" /><path clip-path="url(#clip750)" d="M715.904 1488.41 Q718.785 1486.54 721.715 1486.82 Q724.661 1487.08 727.018 1489.44 Q730.635 1493.06 730.128 1497.52 Q729.62 1501.99 725.037 1506.58 Q723.499 1508.11 721.551 1509.44 Q719.636 1510.77 717.295 1511.9 L714.103 1508.7 Q716.28 1508.13 718.326 1506.9 Q720.372 1505.68 722.157 1503.89 Q725.266 1500.78 725.659 1497.93 Q726.069 1495.07 723.728 1492.73 Q721.567 1490.57 718.834 1490.88 Q716.1 1491.16 713.4 1493.86 L710.552 1496.71 L707.834 1493.99 L710.813 1491.01 Q713.252 1488.57 713.58 1486.31 Q713.891 1484.04 712.057 1482.2 Q710.175 1480.32 707.834 1480.66 Q705.494 1480.98 703.006 1483.46 Q701.647 1484.82 700.387 1486.67 Q699.127 1488.52 697.883 1491.01 L694.936 1488.06 Q696.295 1485.66 697.67 1483.76 Q699.061 1481.84 700.518 1480.39 Q704.283 1476.62 708.195 1476.15 Q712.09 1475.66 715.004 1478.57 Q717.033 1480.6 717.279 1483.17 Q717.508 1485.72 715.904 1488.41 Z" fill="#000000" fill-rule="evenodd" fill-opacity="1" /><path clip-path="url(#clip750)" d="M736.577 1485.77 L740.031 1482.32 L742.846 1485.13 L745.399 1493.06 L743.288 1495.17 L739.392 1488.59 L736.577 1485.77 Z" fill="#000000" fill-rule="evenodd" fill-opacity="1" /><path clip-path="url(#clip750)" d="M755.646 1447.95 Q753.42 1450.17 753.632 1453 Q753.862 1455.82 756.513 1458.47 Q759.148 1461.11 761.98 1461.35 Q764.812 1461.56 767.038 1459.34 Q769.264 1457.11 769.035 1454.3 Q768.806 1451.45 766.17 1448.81 Q763.519 1446.16 760.687 1445.95 Q757.872 1445.72 755.646 1447.95 M751.848 1431.02 L754.86 1434.03 Q753.027 1434.69 751.439 1435.65 Q749.868 1436.6 748.624 1437.85 Q745.35 1441.12 745.825 1445.06 Q746.316 1448.99 750.539 1453.71 Q750.081 1451.32 750.784 1449.11 Q751.472 1446.88 753.223 1445.13 Q756.906 1441.45 761.276 1441.56 Q765.647 1441.64 769.493 1445.49 Q773.258 1449.25 773.307 1453.76 Q773.356 1458.26 769.657 1461.96 Q765.417 1466.2 759.934 1465.2 Q754.434 1464.18 748.264 1458.01 Q742.469 1452.22 741.782 1446.03 Q741.078 1439.83 745.71 1435.19 Q746.954 1433.95 748.46 1432.94 Q749.982 1431.9 751.848 1431.02 Z" fill="#000000" fill-rule="evenodd" fill-opacity="1" /><path clip-path="url(#clip750)" d="M779.216 1443.13 L782.669 1439.68 L785.485 1442.49 L788.038 1450.42 L785.927 1452.53 L782.031 1445.95 L779.216 1443.13 Z" fill="#000000" fill-rule="evenodd" fill-opacity="1" /><path clip-path="url(#clip750)" d="M791.868 1395.68 L796.566 1417.07 L804.914 1408.73 L791.868 1395.68 M788.12 1393.67 L792.278 1389.51 L808.204 1405.44 L811.69 1401.95 L814.44 1404.7 L810.954 1408.19 L816.715 1413.95 L813.425 1417.24 L807.664 1411.48 L796.632 1422.51 L793.44 1419.32 L788.12 1393.67 Z" fill="#000000" fill-rule="evenodd" fill-opacity="1" /><path clip-path="url(#clip750)" d="M806.812 1372.91 L836.701 1402.8 L829.761 1409.74 L827.42 1407.4 L831.332 1403.49 L806.125 1378.28 L802.213 1382.19 L799.872 1379.85 L806.812 1372.91 Z" fill="#000000" fill-rule="evenodd" fill-opacity="1" /><path clip-path="url(#clip750)" d="M785.007 1499.91 L791.947 1492.97 L794.288 1495.31 L790.36 1499.24 L815.567 1524.45 L819.495 1520.52 L821.836 1522.86 L814.896 1529.8 L785.007 1499.91 Z" fill="#000000" fill-rule="evenodd" fill-opacity="1" /><path clip-path="url(#clip750)" d="M821.099 1488.41 Q823.98 1486.54 826.91 1486.82 Q829.856 1487.08 832.213 1489.44 Q835.83 1493.06 835.323 1497.52 Q834.816 1501.99 830.232 1506.58 Q828.694 1508.11 826.746 1509.44 Q824.831 1510.77 822.49 1511.9 L819.299 1508.7 Q821.476 1508.13 823.522 1506.9 Q825.568 1505.68 827.352 1503.89 Q830.462 1500.78 830.854 1497.93 Q831.264 1495.07 828.923 1492.73 Q826.762 1490.57 824.029 1490.88 Q821.295 1491.16 818.595 1493.86 L815.747 1496.71 L813.03 1493.99 L816.009 1491.01 Q818.447 1488.57 818.775 1486.31 Q819.086 1484.04 817.253 1482.2 Q815.37 1480.32 813.03 1480.66 Q810.689 1480.98 808.201 1483.46 Q806.842 1484.82 805.582 1486.67 Q804.322 1488.52 803.078 1491.01 L800.131 1488.06 Q801.49 1485.66 802.865 1483.76 Q804.256 1481.84 805.713 1480.39 Q809.478 1476.62 813.39 1476.15 Q817.285 1475.66 820.199 1478.57 Q822.228 1480.6 822.474 1483.17 Q822.703 1485.72 821.099 1488.41 Z" fill="#000000" fill-rule="evenodd" fill-opacity="1" /><path clip-path="url(#clip750)" d="M841.772 1485.77 L845.226 1482.32 L848.041 1485.13 L850.594 1493.06 L848.483 1495.17 L844.587 1488.59 L841.772 1485.77 Z" fill="#000000" fill-rule="evenodd" fill-opacity="1" /><path clip-path="url(#clip750)" d="M841.625 1445.36 L857.338 1429.65 L858.746 1431.05 L872.904 1462.95 L869.451 1466.41 L856.143 1436.41 L844.407 1448.14 L841.625 1445.36 Z" fill="#000000" fill-rule="evenodd" fill-opacity="1" /><path clip-path="url(#clip750)" d="M884.411 1443.13 L887.865 1439.68 L890.68 1442.49 L893.233 1450.42 L891.122 1452.53 L887.226 1445.95 L884.411 1443.13 Z" fill="#000000" fill-rule="evenodd" fill-opacity="1" /><path clip-path="url(#clip750)" d="M897.064 1395.68 L901.761 1417.07 L910.109 1408.73 L897.064 1395.68 M893.315 1393.67 L897.473 1389.51 L913.399 1405.44 L916.885 1401.95 L919.635 1404.7 L916.149 1408.19 L921.91 1413.95 L918.62 1417.24 L912.859 1411.48 L901.827 1422.51 L898.635 1419.32 L893.315 1393.67 Z" fill="#000000" fill-rule="evenodd" fill-opacity="1" /><path clip-path="url(#clip750)" d="M912.008 1372.91 L941.896 1402.8 L934.956 1409.74 L932.615 1407.4 L936.527 1403.49 L911.32 1378.28 L907.408 1382.19 L905.068 1379.85 L912.008 1372.91 Z" fill="#000000" fill-rule="evenodd" fill-opacity="1" /><path clip-path="url(#clip750)" d="M890.203 1499.91 L897.143 1492.97 L899.483 1495.31 L895.555 1499.24 L920.762 1524.45 L924.69 1520.52 L927.031 1522.86 L920.091 1529.8 L890.203 1499.91 Z" fill="#000000" fill-rule="evenodd" fill-opacity="1" /><path clip-path="url(#clip750)" d="M916.981 1480.96 L921.678 1502.35 L930.026 1494 L916.981 1480.96 M913.232 1478.95 L917.39 1474.79 L933.316 1490.71 L936.803 1487.23 L939.552 1489.98 L936.066 1493.46 L941.828 1499.23 L938.538 1502.52 L932.776 1496.75 L921.744 1507.79 L918.552 1504.6 L913.232 1478.95 Z" fill="#000000" fill-rule="evenodd" fill-opacity="1" /><path clip-path="url(#clip750)" d="M946.967 1485.77 L950.421 1482.32 L953.236 1485.13 L955.79 1493.06 L953.678 1495.17 L949.782 1488.59 L946.967 1485.77 Z" fill="#000000" fill-rule="evenodd" fill-opacity="1" /><path clip-path="url(#clip750)" d="M947.687 1444.49 L960.667 1431.51 L963.45 1434.29 L953.498 1444.25 L959.489 1450.24 Q959.963 1449.27 960.569 1448.44 Q961.158 1447.58 961.879 1446.86 Q965.971 1442.77 970.603 1442.63 Q975.235 1442.48 979.065 1446.31 Q983.01 1450.25 982.748 1454.9 Q982.47 1459.53 978.001 1464 Q976.463 1465.54 974.597 1466.88 Q972.747 1468.21 970.521 1469.39 L967.198 1466.06 Q969.473 1465.39 971.438 1464.21 Q973.402 1463.04 975.153 1461.29 Q977.985 1458.45 978.148 1455.31 Q978.312 1452.17 975.759 1449.61 Q973.205 1447.06 970.063 1447.22 Q966.92 1447.39 964.088 1450.22 Q962.762 1451.55 961.731 1453.17 Q960.716 1454.77 959.963 1456.77 L947.687 1444.49 Z" fill="#000000" fill-rule="evenodd" fill-opacity="1" /><path clip-path="url(#clip750)" d="M989.606 1443.13 L993.06 1439.68 L995.875 1442.49 L998.429 1450.42 L996.317 1452.53 L992.421 1445.95 L989.606 1443.13 Z" fill="#000000" fill-rule="evenodd" fill-opacity="1" /><path clip-path="url(#clip750)" d="M1002.26 1395.68 L1006.96 1417.07 L1015.3 1408.73 L1002.26 1395.68 M998.51 1393.67 L1002.67 1389.51 L1018.59 1405.44 L1022.08 1401.95 L1024.83 1404.7 L1021.34 1408.19 L1027.11 1413.95 L1023.82 1417.24 L1018.05 1411.48 L1007.02 1422.51 L1003.83 1419.32 L998.51 1393.67 Z" fill="#000000" fill-rule="evenodd" fill-opacity="1" /><path clip-path="url(#clip750)" d="M1017.2 1372.91 L1047.09 1402.8 L1040.15 1409.74 L1037.81 1407.4 L1041.72 1403.49 L1016.52 1378.28 L1012.6 1382.19 L1010.26 1379.85 L1017.2 1372.91 Z" fill="#000000" fill-rule="evenodd" fill-opacity="1" /><path clip-path="url(#clip750)" d="M995.398 1499.91 L1002.34 1492.97 L1004.68 1495.31 L1000.75 1499.24 L1025.96 1524.45 L1029.89 1520.52 L1032.23 1522.86 L1025.29 1529.8 L995.398 1499.91 Z" fill="#000000" fill-rule="evenodd" fill-opacity="1" /><path clip-path="url(#clip750)" d="M1022.18 1480.96 L1026.87 1502.35 L1035.22 1494 L1022.18 1480.96 M1018.43 1478.95 L1022.59 1474.79 L1038.51 1490.71 L1042 1487.23 L1044.75 1489.98 L1041.26 1493.46 L1047.02 1499.23 L1043.73 1502.52 L1037.97 1496.75 L1026.94 1507.79 L1023.75 1504.6 L1018.43 1478.95 Z" fill="#000000" fill-rule="evenodd" fill-opacity="1" /><path clip-path="url(#clip750)" d="M1052.16 1485.77 L1055.62 1482.32 L1058.43 1485.13 L1060.98 1493.06 L1058.87 1495.17 L1054.98 1488.59 L1052.16 1485.77 Z" fill="#000000" fill-rule="evenodd" fill-opacity="1" /><path clip-path="url(#clip750)" d="M1071.23 1447.95 Q1069.01 1450.17 1069.22 1453 Q1069.45 1455.82 1072.1 1458.47 Q1074.73 1461.11 1077.57 1461.35 Q1080.4 1461.56 1082.62 1459.34 Q1084.85 1457.11 1084.62 1454.3 Q1084.39 1451.45 1081.76 1448.81 Q1079.1 1446.16 1076.27 1445.95 Q1073.46 1445.72 1071.23 1447.95 M1067.43 1431.02 L1070.45 1434.03 Q1068.61 1434.69 1067.02 1435.65 Q1065.45 1436.6 1064.21 1437.85 Q1060.94 1441.12 1061.41 1445.06 Q1061.9 1448.99 1066.12 1453.71 Q1065.67 1451.32 1066.37 1449.11 Q1067.06 1446.88 1068.81 1445.13 Q1072.49 1441.45 1076.86 1441.56 Q1081.23 1441.64 1085.08 1445.49 Q1088.84 1449.25 1088.89 1453.76 Q1088.94 1458.26 1085.24 1461.96 Q1081 1466.2 1075.52 1465.2 Q1070.02 1464.18 1063.85 1458.01 Q1058.05 1452.22 1057.37 1446.03 Q1056.66 1439.83 1061.3 1435.19 Q1062.54 1433.95 1064.05 1432.94 Q1065.57 1431.9 1067.43 1431.02 Z" fill="#000000" fill-rule="evenodd" fill-opacity="1" /><path clip-path="url(#clip750)" d="M1094.8 1443.13 L1098.25 1439.68 L1101.07 1442.49 L1103.62 1450.42 L1101.51 1452.53 L1097.62 1445.95 L1094.8 1443.13 Z" fill="#000000" fill-rule="evenodd" fill-opacity="1" /><path clip-path="url(#clip750)" d="M1095.52 1401.85 L1108.5 1388.87 L1111.28 1391.66 L1101.33 1401.61 L1107.32 1407.6 Q1107.8 1406.63 1108.4 1405.8 Q1108.99 1404.95 1109.71 1404.23 Q1113.8 1400.13 1118.44 1399.99 Q1123.07 1399.84 1126.9 1403.67 Q1130.84 1407.61 1130.58 1412.26 Q1130.3 1416.89 1125.84 1421.36 Q1124.3 1422.9 1122.43 1424.24 Q1120.58 1425.57 1118.36 1426.75 L1115.03 1423.43 Q1117.31 1422.75 1119.27 1421.58 Q1121.24 1420.4 1122.99 1418.65 Q1125.82 1415.81 1125.98 1412.67 Q1126.15 1409.53 1123.59 1406.98 Q1121.04 1404.42 1117.9 1404.59 Q1114.75 1404.75 1111.92 1407.58 Q1110.6 1408.91 1109.57 1410.53 Q1108.55 1412.13 1107.8 1414.13 L1095.52 1401.85 Z" fill="#000000" fill-rule="evenodd" fill-opacity="1" /><path clip-path="url(#clip750)" d="M1122.4 1372.91 L1152.29 1402.8 L1145.35 1409.74 L1143.01 1407.4 L1146.92 1403.49 L1121.71 1378.28 L1117.8 1382.19 L1115.46 1379.85 L1122.4 1372.91 Z" fill="#000000" fill-rule="evenodd" fill-opacity="1" /><path clip-path="url(#clip750)" d="M1100.59 1499.91 L1107.53 1492.97 L1109.87 1495.31 L1105.95 1499.24 L1131.15 1524.45 L1135.08 1520.52 L1137.42 1522.86 L1130.48 1529.8 L1100.59 1499.91 Z" fill="#000000" fill-rule="evenodd" fill-opacity="1" /><path clip-path="url(#clip750)" d="M1127.37 1480.96 L1132.07 1502.35 L1140.42 1494 L1127.37 1480.96 M1123.62 1478.95 L1127.78 1474.79 L1143.71 1490.71 L1147.19 1487.23 L1149.94 1489.98 L1146.46 1493.46 L1152.22 1499.23 L1148.93 1502.52 L1143.17 1496.75 L1132.13 1507.79 L1128.94 1504.6 L1123.62 1478.95 Z" fill="#000000" fill-rule="evenodd" fill-opacity="1" /><path clip-path="url(#clip750)" d="M1157.36 1485.77 L1160.81 1482.32 L1163.63 1485.13 L1166.18 1493.06 L1164.07 1495.17 L1160.17 1488.59 L1157.36 1485.77 Z" fill="#000000" fill-rule="evenodd" fill-opacity="1" /><path clip-path="url(#clip750)" d="M1157.21 1445.36 L1172.92 1429.65 L1174.33 1431.05 L1188.49 1462.95 L1185.04 1466.41 L1171.73 1436.41 L1159.99 1448.14 L1157.21 1445.36 Z" fill="#000000" fill-rule="evenodd" fill-opacity="1" /><path clip-path="url(#clip750)" d="M1200 1443.13 L1203.45 1439.68 L1206.27 1442.49 L1208.82 1450.42 L1206.71 1452.53 L1202.81 1445.95 L1200 1443.13 Z" fill="#000000" fill-rule="evenodd" fill-opacity="1" /><path clip-path="url(#clip750)" d="M1212.65 1395.68 L1217.35 1417.07 L1225.69 1408.73 L1212.65 1395.68 M1208.9 1393.67 L1213.06 1389.51 L1228.98 1405.44 L1232.47 1401.95 L1235.22 1404.7 L1231.73 1408.19 L1237.5 1413.95 L1234.21 1417.24 L1228.44 1411.48 L1217.41 1422.51 L1214.22 1419.32 L1208.9 1393.67 Z" fill="#000000" fill-rule="evenodd" fill-opacity="1" /><path clip-path="url(#clip750)" d="M1227.59 1372.91 L1257.48 1402.8 L1250.54 1409.74 L1248.2 1407.4 L1252.11 1403.49 L1226.91 1378.28 L1222.99 1382.19 L1220.65 1379.85 L1227.59 1372.91 Z" fill="#000000" fill-rule="evenodd" fill-opacity="1" /><path clip-path="url(#clip750)" d="M1205.79 1499.91 L1212.73 1492.97 L1215.07 1495.31 L1211.14 1499.24 L1236.35 1524.45 L1240.28 1520.52 L1242.62 1522.86 L1235.68 1529.8 L1205.79 1499.91 Z" fill="#000000" fill-rule="evenodd" fill-opacity="1" /><path clip-path="url(#clip750)" d="M1232.57 1480.96 L1237.26 1502.35 L1245.61 1494 L1232.57 1480.96 M1228.82 1478.95 L1232.98 1474.79 L1248.9 1490.71 L1252.39 1487.23 L1255.14 1489.98 L1251.65 1493.46 L1257.41 1499.23 L1254.12 1502.52 L1248.36 1496.75 L1237.33 1507.79 L1234.14 1504.6 L1228.82 1478.95 Z" fill="#000000" fill-rule="evenodd" fill-opacity="1" /><path clip-path="url(#clip750)" d="M1262.55 1485.77 L1266.01 1482.32 L1268.82 1485.13 L1271.38 1493.06 L1269.26 1495.17 L1265.37 1488.59 L1262.55 1485.77 Z" fill="#000000" fill-rule="evenodd" fill-opacity="1" /><path clip-path="url(#clip750)" d="M1287.27 1468.36 L1284.26 1465.34 Q1286.09 1464.69 1287.68 1463.72 Q1289.27 1462.76 1290.49 1461.53 Q1293.77 1458.26 1293.29 1454.35 Q1292.82 1450.4 1288.58 1445.67 Q1289.04 1448.03 1288.33 1450.24 Q1287.63 1452.45 1285.86 1454.21 Q1282.19 1457.88 1277.84 1457.82 Q1273.49 1457.72 1269.64 1453.87 Q1265.88 1450.11 1265.83 1445.6 Q1265.78 1441.1 1269.48 1437.4 Q1273.72 1433.16 1279.2 1434.2 Q1284.68 1435.19 1290.87 1441.38 Q1296.65 1447.16 1297.35 1453.36 Q1298.06 1459.53 1293.42 1464.17 Q1292.18 1465.41 1290.66 1466.44 Q1289.13 1467.47 1287.27 1468.36 M1283.49 1451.42 Q1285.71 1449.19 1285.48 1446.37 Q1285.27 1443.54 1282.62 1440.89 Q1279.98 1438.26 1277.15 1438.04 Q1274.32 1437.8 1272.1 1440.02 Q1269.87 1442.25 1270.1 1445.1 Q1270.33 1447.91 1272.96 1450.55 Q1275.61 1453.2 1278.43 1453.43 Q1281.26 1453.64 1283.49 1451.42 Z" fill="#000000" fill-rule="evenodd" fill-opacity="1" /><path clip-path="url(#clip750)" d="M1305.19 1443.13 L1308.65 1439.68 L1311.46 1442.49 L1314.01 1450.42 L1311.9 1452.53 L1308.01 1445.95 L1305.19 1443.13 Z" fill="#000000" fill-rule="evenodd" fill-opacity="1" /><path clip-path="url(#clip750)" d="M1317.84 1395.68 L1322.54 1417.07 L1330.89 1408.73 L1317.84 1395.68 M1314.1 1393.67 L1318.25 1389.51 L1334.18 1405.44 L1337.67 1401.95 L1340.42 1404.7 L1336.93 1408.19 L1342.69 1413.95 L1339.4 1417.24 L1333.64 1411.48 L1322.61 1422.51 L1319.42 1419.32 L1314.1 1393.67 Z" fill="#000000" fill-rule="evenodd" fill-opacity="1" /><path clip-path="url(#clip750)" d="M1332.79 1372.91 L1362.68 1402.8 L1355.74 1409.74 L1353.4 1407.4 L1357.31 1403.49 L1332.1 1378.28 L1328.19 1382.19 L1325.85 1379.85 L1332.79 1372.91 Z" fill="#000000" fill-rule="evenodd" fill-opacity="1" /><path clip-path="url(#clip750)" d="M1310.98 1499.91 L1317.92 1492.97 L1320.26 1495.31 L1316.34 1499.24 L1341.54 1524.45 L1345.47 1520.52 L1347.81 1522.86 L1340.87 1529.8 L1310.98 1499.91 Z" fill="#000000" fill-rule="evenodd" fill-opacity="1" /><path clip-path="url(#clip750)" d="M1325.83 1487.13 L1338.81 1474.15 L1341.59 1476.93 L1331.64 1486.88 L1337.63 1492.88 Q1338.11 1491.91 1338.71 1491.08 Q1339.3 1490.22 1340.02 1489.5 Q1344.11 1485.41 1348.74 1485.26 Q1353.38 1485.12 1357.21 1488.95 Q1361.15 1492.89 1360.89 1497.54 Q1360.61 1502.17 1356.14 1506.64 Q1354.6 1508.18 1352.74 1509.52 Q1350.89 1510.85 1348.66 1512.03 L1345.34 1508.7 Q1347.61 1508.03 1349.58 1506.85 Q1351.54 1505.68 1353.29 1503.92 Q1356.13 1501.09 1356.29 1497.95 Q1356.45 1494.81 1353.9 1492.25 Q1351.35 1489.7 1348.2 1489.86 Q1345.06 1490.03 1342.23 1492.86 Q1340.9 1494.19 1339.87 1495.81 Q1338.86 1497.41 1338.11 1499.41 L1325.83 1487.13 Z" fill="#000000" fill-rule="evenodd" fill-opacity="1" /><path clip-path="url(#clip750)" d="M1367.75 1485.77 L1371.2 1482.32 L1374.02 1485.13 L1376.57 1493.06 L1374.46 1495.17 L1370.56 1488.59 L1367.75 1485.77 Z" fill="#000000" fill-rule="evenodd" fill-opacity="1" /><path clip-path="url(#clip750)" d="M1380.4 1438.32 L1385.1 1459.71 L1393.45 1451.37 L1380.4 1438.32 M1376.65 1436.31 L1380.81 1432.15 L1396.74 1448.08 L1400.22 1444.59 L1402.97 1447.34 L1399.49 1450.83 L1405.25 1456.59 L1401.96 1459.88 L1396.2 1454.12 L1385.16 1465.15 L1381.97 1461.96 L1376.65 1436.31 Z" fill="#000000" fill-rule="evenodd" fill-opacity="1" /><path clip-path="url(#clip750)" d="M1410.39 1443.13 L1413.84 1439.68 L1416.66 1442.49 L1419.21 1450.42 L1417.1 1452.53 L1413.2 1445.95 L1410.39 1443.13 Z" fill="#000000" fill-rule="evenodd" fill-opacity="1" /><path clip-path="url(#clip750)" d="M1432.35 1403.13 Q1435.23 1401.26 1438.16 1401.54 Q1441.11 1401.8 1443.47 1404.16 Q1447.08 1407.78 1446.58 1412.25 Q1446.07 1416.71 1441.49 1421.3 Q1439.95 1422.84 1438 1424.16 Q1436.08 1425.49 1433.74 1426.62 L1430.55 1423.43 Q1432.73 1422.85 1434.78 1421.63 Q1436.82 1420.4 1438.61 1418.61 Q1441.72 1415.5 1442.11 1412.66 Q1442.52 1409.79 1440.18 1407.45 Q1438.02 1405.29 1435.28 1405.6 Q1432.55 1405.88 1429.85 1408.58 L1427 1411.43 L1424.28 1408.71 L1427.26 1405.73 Q1429.7 1403.29 1430.03 1401.03 Q1430.34 1398.76 1428.51 1396.93 Q1426.62 1395.04 1424.28 1395.39 Q1421.94 1395.7 1419.45 1398.19 Q1418.1 1399.54 1416.84 1401.39 Q1415.58 1403.24 1414.33 1405.73 L1411.39 1402.79 Q1412.74 1400.38 1414.12 1398.48 Q1415.51 1396.57 1416.97 1395.11 Q1420.73 1391.34 1424.64 1390.87 Q1428.54 1390.38 1431.45 1393.29 Q1433.48 1395.32 1433.73 1397.89 Q1433.96 1400.44 1432.35 1403.13 Z" fill="#000000" fill-rule="evenodd" fill-opacity="1" /><path clip-path="url(#clip750)" d="M1437.98 1372.91 L1467.87 1402.8 L1460.93 1409.74 L1458.59 1407.4 L1462.5 1403.49 L1437.3 1378.28 L1433.38 1382.19 L1431.04 1379.85 L1437.98 1372.91 Z" fill="#000000" fill-rule="evenodd" fill-opacity="1" /><path clip-path="url(#clip750)" d="M1416.18 1499.91 L1423.12 1492.97 L1425.46 1495.31 L1421.53 1499.24 L1446.74 1524.45 L1450.67 1520.52 L1453.01 1522.86 L1446.07 1529.8 L1416.18 1499.91 Z" fill="#000000" fill-rule="evenodd" fill-opacity="1" /><path clip-path="url(#clip750)" d="M1431.02 1487.13 L1444 1474.15 L1446.79 1476.93 L1436.83 1486.88 L1442.83 1492.88 Q1443.3 1491.91 1443.91 1491.08 Q1444.5 1490.22 1445.22 1489.5 Q1449.31 1485.41 1453.94 1485.26 Q1458.57 1485.12 1462.4 1488.95 Q1466.35 1492.89 1466.08 1497.54 Q1465.81 1502.17 1461.34 1506.64 Q1459.8 1508.18 1457.93 1509.52 Q1456.08 1510.85 1453.86 1512.03 L1450.53 1508.7 Q1452.81 1508.03 1454.77 1506.85 Q1456.74 1505.68 1458.49 1503.92 Q1461.32 1501.09 1461.49 1497.95 Q1461.65 1494.81 1459.1 1492.25 Q1456.54 1489.7 1453.4 1489.86 Q1450.26 1490.03 1447.43 1492.86 Q1446.1 1494.19 1445.07 1495.81 Q1444.05 1497.41 1443.3 1499.41 L1431.02 1487.13 Z" fill="#000000" fill-rule="evenodd" fill-opacity="1" /><path clip-path="url(#clip750)" d="M1472.94 1485.77 L1476.4 1482.32 L1479.21 1485.13 L1481.77 1493.06 L1479.65 1495.17 L1475.76 1488.59 L1472.94 1485.77 Z" fill="#000000" fill-rule="evenodd" fill-opacity="1" /><path clip-path="url(#clip750)" d="M1473.66 1444.49 L1486.64 1431.51 L1489.43 1434.29 L1479.47 1444.25 L1485.46 1450.24 Q1485.94 1449.27 1486.54 1448.44 Q1487.13 1447.58 1487.85 1446.86 Q1491.95 1442.77 1496.58 1442.63 Q1501.21 1442.48 1505.04 1446.31 Q1508.99 1450.25 1508.72 1454.9 Q1508.45 1459.53 1503.98 1464 Q1502.44 1465.54 1500.57 1466.88 Q1498.72 1468.21 1496.5 1469.39 L1493.17 1466.06 Q1495.45 1465.39 1497.41 1464.21 Q1499.38 1463.04 1501.13 1461.29 Q1503.96 1458.45 1504.12 1455.31 Q1504.29 1452.17 1501.73 1449.61 Q1499.18 1447.06 1496.04 1447.22 Q1492.9 1447.39 1490.06 1450.22 Q1488.74 1451.55 1487.71 1453.17 Q1486.69 1454.77 1485.94 1456.77 L1473.66 1444.49 Z" fill="#000000" fill-rule="evenodd" fill-opacity="1" /><path clip-path="url(#clip750)" d="M1515.58 1443.13 L1519.04 1439.68 L1521.85 1442.49 L1524.4 1450.42 L1522.29 1452.53 L1518.4 1445.95 L1515.58 1443.13 Z" fill="#000000" fill-rule="evenodd" fill-opacity="1" /><path clip-path="url(#clip750)" d="M1528.23 1395.68 L1532.93 1417.07 L1541.28 1408.73 L1528.23 1395.68 M1524.49 1393.67 L1528.64 1389.51 L1544.57 1405.44 L1548.06 1401.95 L1550.81 1404.7 L1547.32 1408.19 L1553.08 1413.95 L1549.79 1417.24 L1544.03 1411.48 L1533 1422.51 L1529.81 1419.32 L1524.49 1393.67 Z" fill="#000000" fill-rule="evenodd" fill-opacity="1" /><path clip-path="url(#clip750)" d="M1543.18 1372.91 L1573.07 1402.8 L1566.13 1409.74 L1563.79 1407.4 L1567.7 1403.49 L1542.49 1378.28 L1538.58 1382.19 L1536.24 1379.85 L1543.18 1372.91 Z" fill="#000000" fill-rule="evenodd" fill-opacity="1" /><path clip-path="url(#clip750)" d="M1521.37 1499.91 L1528.31 1492.97 L1530.65 1495.31 L1526.73 1499.24 L1551.93 1524.45 L1555.86 1520.52 L1558.2 1522.86 L1551.26 1529.8 L1521.37 1499.91 Z" fill="#000000" fill-rule="evenodd" fill-opacity="1" /><path clip-path="url(#clip750)" d="M1536.22 1487.13 L1549.2 1474.15 L1551.98 1476.93 L1542.03 1486.88 L1548.02 1492.88 Q1548.5 1491.91 1549.1 1491.08 Q1549.69 1490.22 1550.41 1489.5 Q1554.5 1485.41 1559.13 1485.26 Q1563.77 1485.12 1567.6 1488.95 Q1571.54 1492.89 1571.28 1497.54 Q1571 1502.17 1566.53 1506.64 Q1564.99 1508.18 1563.13 1509.52 Q1561.28 1510.85 1559.05 1512.03 L1555.73 1508.7 Q1558.01 1508.03 1559.97 1506.85 Q1561.93 1505.68 1563.69 1503.92 Q1566.52 1501.09 1566.68 1497.95 Q1566.84 1494.81 1564.29 1492.25 Q1561.74 1489.7 1558.59 1489.86 Q1555.45 1490.03 1552.62 1492.86 Q1551.29 1494.19 1550.26 1495.81 Q1549.25 1497.41 1548.5 1499.41 L1536.22 1487.13 Z" fill="#000000" fill-rule="evenodd" fill-opacity="1" /><path clip-path="url(#clip750)" d="M1578.14 1485.77 L1581.59 1482.32 L1584.41 1485.13 L1586.96 1493.06 L1584.85 1495.17 L1580.95 1488.59 L1578.14 1485.77 Z" fill="#000000" fill-rule="evenodd" fill-opacity="1" /><path clip-path="url(#clip750)" d="M1577.99 1445.36 L1593.7 1429.65 L1595.11 1431.05 L1609.27 1462.95 L1605.82 1466.41 L1592.51 1436.41 L1580.77 1448.14 L1577.99 1445.36 Z" fill="#000000" fill-rule="evenodd" fill-opacity="1" /><path clip-path="url(#clip750)" d="M1620.78 1443.13 L1624.23 1439.68 L1627.05 1442.49 L1629.6 1450.42 L1627.49 1452.53 L1623.59 1445.95 L1620.78 1443.13 Z" fill="#000000" fill-rule="evenodd" fill-opacity="1" /><path clip-path="url(#clip750)" d="M1633.43 1395.68 L1638.13 1417.07 L1646.48 1408.73 L1633.43 1395.68 M1629.68 1393.67 L1633.84 1389.51 L1649.77 1405.44 L1653.25 1401.95 L1656 1404.7 L1652.51 1408.19 L1658.28 1413.95 L1654.99 1417.24 L1649.22 1411.48 L1638.19 1422.51 L1635 1419.32 L1629.68 1393.67 Z" fill="#000000" fill-rule="evenodd" fill-opacity="1" /><path clip-path="url(#clip750)" d="M1648.37 1372.91 L1678.26 1402.8 L1671.32 1409.74 L1668.98 1407.4 L1672.89 1403.49 L1647.69 1378.28 L1643.77 1382.19 L1641.43 1379.85 L1648.37 1372.91 Z" fill="#000000" fill-rule="evenodd" fill-opacity="1" /><path clip-path="url(#clip750)" d="M1626.57 1499.91 L1633.51 1492.97 L1635.85 1495.31 L1631.92 1499.24 L1657.13 1524.45 L1661.06 1520.52 L1663.4 1522.86 L1656.46 1529.8 L1626.57 1499.91 Z" fill="#000000" fill-rule="evenodd" fill-opacity="1" /><path clip-path="url(#clip750)" d="M1641.41 1487.13 L1654.39 1474.15 L1657.18 1476.93 L1647.23 1486.88 L1653.22 1492.88 Q1653.69 1491.91 1654.3 1491.08 Q1654.89 1490.22 1655.61 1489.5 Q1659.7 1485.41 1664.33 1485.26 Q1668.96 1485.12 1672.79 1488.95 Q1676.74 1492.89 1676.48 1497.54 Q1676.2 1502.17 1671.73 1506.64 Q1670.19 1508.18 1668.32 1509.52 Q1666.47 1510.85 1664.25 1512.03 L1660.93 1508.7 Q1663.2 1508.03 1665.16 1506.85 Q1667.13 1505.68 1668.88 1503.92 Q1671.71 1501.09 1671.88 1497.95 Q1672.04 1494.81 1669.49 1492.25 Q1666.93 1489.7 1663.79 1489.86 Q1660.65 1490.03 1657.82 1492.86 Q1656.49 1494.19 1655.46 1495.81 Q1654.44 1497.41 1653.69 1499.41 L1641.41 1487.13 Z" fill="#000000" fill-rule="evenodd" fill-opacity="1" /><path clip-path="url(#clip750)" d="M1683.33 1485.77 L1686.79 1482.32 L1689.6 1485.13 L1692.16 1493.06 L1690.04 1495.17 L1686.15 1488.59 L1683.33 1485.77 Z" fill="#000000" fill-rule="evenodd" fill-opacity="1" /><path clip-path="url(#clip750)" d="M1703.92 1450.29 Q1701.57 1452.64 1701.47 1455.26 Q1701.39 1457.86 1703.6 1460.07 Q1705.81 1462.28 1708.41 1462.2 Q1711.03 1462.1 1713.39 1459.75 Q1715.74 1457.39 1715.84 1454.77 Q1715.92 1452.14 1713.73 1449.94 Q1711.52 1447.73 1708.9 1447.83 Q1706.3 1447.91 1703.92 1450.29 M1699.21 1452.18 Q1696.56 1453.79 1693.91 1453.53 Q1691.27 1453.25 1689.18 1451.15 Q1686.25 1448.22 1686.62 1444.44 Q1687.02 1440.64 1690.65 1437.01 Q1694.3 1433.36 1698.08 1432.98 Q1701.86 1432.61 1704.79 1435.54 Q1706.89 1437.63 1707.15 1440.28 Q1707.43 1442.92 1705.84 1445.56 Q1708.79 1443.72 1711.73 1444.02 Q1714.69 1444.29 1717.04 1446.64 Q1720.59 1450.19 1720.31 1454.26 Q1720.05 1458.32 1716 1462.37 Q1711.96 1466.41 1707.89 1466.69 Q1703.83 1466.95 1700.27 1463.4 Q1697.93 1461.06 1697.66 1458.09 Q1697.38 1455.13 1699.21 1452.18 M1692.78 1448.17 Q1694.68 1450.07 1696.92 1449.96 Q1699.18 1449.83 1701.32 1447.68 Q1703.45 1445.56 1703.58 1443.3 Q1703.73 1441.02 1701.83 1439.12 Q1699.93 1437.22 1697.66 1437.37 Q1695.4 1437.5 1693.27 1439.63 Q1691.12 1441.77 1690.99 1444.03 Q1690.88 1446.28 1692.78 1448.17 Z" fill="#000000" fill-rule="evenodd" fill-opacity="1" /><path clip-path="url(#clip750)" d="M1725.97 1443.13 L1729.43 1439.68 L1732.24 1442.49 L1734.79 1450.42 L1732.68 1452.53 L1728.79 1445.95 L1725.97 1443.13 Z" fill="#000000" fill-rule="evenodd" fill-opacity="1" /><path clip-path="url(#clip750)" d="M1747.94 1403.13 Q1750.82 1401.26 1753.75 1401.54 Q1756.7 1401.8 1759.05 1404.16 Q1762.67 1407.78 1762.16 1412.25 Q1761.65 1416.71 1757.07 1421.3 Q1755.53 1422.84 1753.59 1424.16 Q1751.67 1425.49 1749.33 1426.62 L1746.14 1423.43 Q1748.31 1422.85 1750.36 1421.63 Q1752.41 1420.4 1754.19 1418.61 Q1757.3 1415.5 1757.69 1412.66 Q1758.1 1409.79 1755.76 1407.45 Q1753.6 1405.29 1750.87 1405.6 Q1748.13 1405.88 1745.43 1408.58 L1742.59 1411.43 L1739.87 1408.71 L1742.85 1405.73 Q1745.29 1403.29 1745.61 1401.03 Q1745.92 1398.76 1744.09 1396.93 Q1742.21 1395.04 1739.87 1395.39 Q1737.53 1395.7 1735.04 1398.19 Q1733.68 1399.54 1732.42 1401.39 Q1731.16 1403.24 1729.92 1405.73 L1726.97 1402.79 Q1728.33 1400.38 1729.7 1398.48 Q1731.1 1396.57 1732.55 1395.11 Q1736.32 1391.34 1740.23 1390.87 Q1744.12 1390.38 1747.04 1393.29 Q1749.07 1395.32 1749.31 1397.89 Q1749.54 1400.44 1747.94 1403.13 Z" fill="#000000" fill-rule="evenodd" fill-opacity="1" /><path clip-path="url(#clip750)" d="M1753.57 1372.91 L1783.46 1402.8 L1776.52 1409.74 L1774.18 1407.4 L1778.09 1403.49 L1752.88 1378.28 L1748.97 1382.19 L1746.63 1379.85 L1753.57 1372.91 Z" fill="#000000" fill-rule="evenodd" fill-opacity="1" /><path clip-path="url(#clip750)" d="M1731.76 1499.91 L1738.7 1492.97 L1741.04 1495.31 L1737.12 1499.24 L1762.32 1524.45 L1766.25 1520.52 L1768.59 1522.86 L1761.65 1529.8 L1731.76 1499.91 Z" fill="#000000" fill-rule="evenodd" fill-opacity="1" /><path clip-path="url(#clip750)" d="M1764.96 1490.58 Q1762.73 1492.81 1762.95 1495.64 Q1763.17 1498.46 1765.83 1501.11 Q1768.46 1503.74 1771.29 1503.99 Q1774.12 1504.2 1776.35 1501.98 Q1778.58 1499.75 1778.35 1496.93 Q1778.12 1494.09 1775.48 1491.45 Q1772.83 1488.8 1770 1488.59 Q1767.18 1488.36 1764.96 1490.58 M1761.16 1473.66 L1764.17 1476.67 Q1762.34 1477.33 1760.75 1478.29 Q1759.18 1479.24 1757.94 1480.48 Q1754.66 1483.76 1755.14 1487.7 Q1755.63 1491.63 1759.85 1496.35 Q1759.39 1493.96 1760.1 1491.75 Q1760.78 1489.52 1762.54 1487.77 Q1766.22 1484.09 1770.59 1484.2 Q1774.96 1484.28 1778.81 1488.13 Q1782.57 1491.89 1782.62 1496.39 Q1782.67 1500.9 1778.97 1504.6 Q1774.73 1508.83 1769.25 1507.84 Q1763.75 1506.82 1757.58 1500.65 Q1751.78 1494.86 1751.09 1488.67 Q1750.39 1482.47 1755.02 1477.83 Q1756.27 1476.59 1757.77 1475.57 Q1759.29 1474.54 1761.16 1473.66 Z" fill="#000000" fill-rule="evenodd" fill-opacity="1" /><path clip-path="url(#clip750)" d="M1788.53 1485.77 L1791.98 1482.32 L1794.8 1485.13 L1797.35 1493.06 L1795.24 1495.17 L1791.34 1488.59 L1788.53 1485.77 Z" fill="#000000" fill-rule="evenodd" fill-opacity="1" /><path clip-path="url(#clip750)" d="M1801.18 1438.32 L1805.88 1459.71 L1814.23 1451.37 L1801.18 1438.32 M1797.43 1436.31 L1801.59 1432.15 L1817.52 1448.08 L1821 1444.59 L1823.75 1447.34 L1820.27 1450.83 L1826.03 1456.59 L1822.74 1459.88 L1816.98 1454.12 L1805.94 1465.15 L1802.75 1461.96 L1797.43 1436.31 Z" fill="#000000" fill-rule="evenodd" fill-opacity="1" /><path clip-path="url(#clip750)" d="M1831.17 1443.13 L1834.62 1439.68 L1837.44 1442.49 L1839.99 1450.42 L1837.88 1452.53 L1833.98 1445.95 L1831.17 1443.13 Z" fill="#000000" fill-rule="evenodd" fill-opacity="1" /><path clip-path="url(#clip750)" d="M1853.13 1403.13 Q1856.01 1401.26 1858.94 1401.54 Q1861.89 1401.8 1864.25 1404.16 Q1867.86 1407.78 1867.36 1412.25 Q1866.85 1416.71 1862.27 1421.3 Q1860.73 1422.84 1858.78 1424.16 Q1856.87 1425.49 1854.52 1426.62 L1851.33 1423.43 Q1853.51 1422.85 1855.56 1421.63 Q1857.6 1420.4 1859.39 1418.61 Q1862.5 1415.5 1862.89 1412.66 Q1863.3 1409.79 1860.96 1407.45 Q1858.8 1405.29 1856.06 1405.6 Q1853.33 1405.88 1850.63 1408.58 L1847.78 1411.43 L1845.06 1408.71 L1848.04 1405.73 Q1850.48 1403.29 1850.81 1401.03 Q1851.12 1398.76 1849.29 1396.93 Q1847.4 1395.04 1845.06 1395.39 Q1842.72 1395.7 1840.24 1398.19 Q1838.88 1399.54 1837.62 1401.39 Q1836.36 1403.24 1835.11 1405.73 L1832.17 1402.79 Q1833.52 1400.38 1834.9 1398.48 Q1836.29 1396.57 1837.75 1395.11 Q1841.51 1391.34 1845.42 1390.87 Q1849.32 1390.38 1852.23 1393.29 Q1854.26 1395.32 1854.51 1397.89 Q1854.74 1400.44 1853.13 1403.13 Z" fill="#000000" fill-rule="evenodd" fill-opacity="1" /><path clip-path="url(#clip750)" d="M1858.76 1372.91 L1888.65 1402.8 L1881.71 1409.74 L1879.37 1407.4 L1883.28 1403.49 L1858.08 1378.28 L1854.16 1382.19 L1851.82 1379.85 L1858.76 1372.91 Z" fill="#000000" fill-rule="evenodd" fill-opacity="1" /><path clip-path="url(#clip750)" d="M1836.96 1499.91 L1843.9 1492.97 L1846.24 1495.31 L1842.31 1499.24 L1867.52 1524.45 L1871.45 1520.52 L1873.79 1522.86 L1866.85 1529.8 L1836.96 1499.91 Z" fill="#000000" fill-rule="evenodd" fill-opacity="1" /><path clip-path="url(#clip750)" d="M1870.15 1490.58 Q1867.93 1492.81 1868.14 1495.64 Q1868.37 1498.46 1871.02 1501.11 Q1873.66 1503.74 1876.49 1503.99 Q1879.32 1504.2 1881.55 1501.98 Q1883.77 1499.75 1883.54 1496.93 Q1883.31 1494.09 1880.68 1491.45 Q1878.03 1488.8 1875.19 1488.59 Q1872.38 1488.36 1870.15 1490.58 M1866.36 1473.66 L1869.37 1476.67 Q1867.53 1477.33 1865.95 1478.29 Q1864.38 1479.24 1863.13 1480.48 Q1859.86 1483.76 1860.33 1487.7 Q1860.82 1491.63 1865.05 1496.35 Q1864.59 1493.96 1865.29 1491.75 Q1865.98 1489.52 1867.73 1487.77 Q1871.41 1484.09 1875.78 1484.2 Q1880.15 1484.28 1884 1488.13 Q1887.77 1491.89 1887.81 1496.39 Q1887.86 1500.9 1884.16 1504.6 Q1879.93 1508.83 1874.44 1507.84 Q1868.94 1506.82 1862.77 1500.65 Q1856.98 1494.86 1856.29 1488.67 Q1855.59 1482.47 1860.22 1477.83 Q1861.46 1476.59 1862.97 1475.57 Q1864.49 1474.54 1866.36 1473.66 Z" fill="#000000" fill-rule="evenodd" fill-opacity="1" /><path clip-path="url(#clip750)" d="M1893.72 1485.77 L1897.18 1482.32 L1899.99 1485.13 L1902.55 1493.06 L1900.43 1495.17 L1896.54 1488.59 L1893.72 1485.77 Z" fill="#000000" fill-rule="evenodd" fill-opacity="1" /><path clip-path="url(#clip750)" d="M1894.44 1444.49 L1907.42 1431.51 L1910.21 1434.29 L1900.25 1444.25 L1906.25 1450.24 Q1906.72 1449.27 1907.33 1448.44 Q1907.91 1447.58 1908.63 1446.86 Q1912.73 1442.77 1917.36 1442.63 Q1921.99 1442.48 1925.82 1446.31 Q1929.77 1450.25 1929.5 1454.9 Q1929.23 1459.53 1924.76 1464 Q1923.22 1465.54 1921.35 1466.88 Q1919.5 1468.21 1917.28 1469.39 L1913.95 1466.06 Q1916.23 1465.39 1918.19 1464.21 Q1920.16 1463.04 1921.91 1461.29 Q1924.74 1458.45 1924.9 1455.31 Q1925.07 1452.17 1922.52 1449.61 Q1919.96 1447.06 1916.82 1447.22 Q1913.68 1447.39 1910.84 1450.22 Q1909.52 1451.55 1908.49 1453.17 Q1907.47 1454.77 1906.72 1456.77 L1894.44 1444.49 Z" fill="#000000" fill-rule="evenodd" fill-opacity="1" /><path clip-path="url(#clip750)" d="M1936.36 1443.13 L1939.82 1439.68 L1942.63 1442.49 L1945.18 1450.42 L1943.07 1452.53 L1939.18 1445.95 L1936.36 1443.13 Z" fill="#000000" fill-rule="evenodd" fill-opacity="1" /><path clip-path="url(#clip750)" d="M1958.33 1403.13 Q1961.21 1401.26 1964.14 1401.54 Q1967.09 1401.8 1969.44 1404.16 Q1973.06 1407.78 1972.55 1412.25 Q1972.05 1416.71 1967.46 1421.3 Q1965.92 1422.84 1963.98 1424.16 Q1962.06 1425.49 1959.72 1426.62 L1956.53 1423.43 Q1958.71 1422.85 1960.75 1421.63 Q1962.8 1420.4 1964.58 1418.61 Q1967.69 1415.5 1968.08 1412.66 Q1968.49 1409.79 1966.15 1407.45 Q1963.99 1405.29 1961.26 1405.6 Q1958.52 1405.88 1955.82 1408.58 L1952.98 1411.43 L1950.26 1408.71 L1953.24 1405.73 Q1955.68 1403.29 1956 1401.03 Q1956.32 1398.76 1954.48 1396.93 Q1952.6 1395.04 1950.26 1395.39 Q1947.92 1395.7 1945.43 1398.19 Q1944.07 1399.54 1942.81 1401.39 Q1941.55 1403.24 1940.31 1405.73 L1937.36 1402.79 Q1938.72 1400.38 1940.09 1398.48 Q1941.49 1396.57 1942.94 1395.11 Q1946.71 1391.34 1950.62 1390.87 Q1954.51 1390.38 1957.43 1393.29 Q1959.46 1395.32 1959.7 1397.89 Q1959.93 1400.44 1958.33 1403.13 Z" fill="#000000" fill-rule="evenodd" fill-opacity="1" /><path clip-path="url(#clip750)" d="M1963.96 1372.91 L1993.85 1402.8 L1986.91 1409.74 L1984.57 1407.4 L1988.48 1403.49 L1963.27 1378.28 L1959.36 1382.19 L1957.02 1379.85 L1963.96 1372.91 Z" fill="#000000" fill-rule="evenodd" fill-opacity="1" /><path clip-path="url(#clip750)" d="M1942.15 1499.91 L1949.09 1492.97 L1951.43 1495.31 L1947.51 1499.24 L1972.71 1524.45 L1976.64 1520.52 L1978.98 1522.86 L1972.04 1529.8 L1942.15 1499.91 Z" fill="#000000" fill-rule="evenodd" fill-opacity="1" /><path clip-path="url(#clip750)" d="M1975.35 1490.58 Q1973.12 1492.81 1973.34 1495.64 Q1973.56 1498.46 1976.22 1501.11 Q1978.85 1503.74 1981.68 1503.99 Q1984.51 1504.2 1986.74 1501.98 Q1988.97 1499.75 1988.74 1496.93 Q1988.51 1494.09 1985.87 1491.45 Q1983.22 1488.8 1980.39 1488.59 Q1977.57 1488.36 1975.35 1490.58 M1971.55 1473.66 L1974.56 1476.67 Q1972.73 1477.33 1971.14 1478.29 Q1969.57 1479.24 1968.33 1480.48 Q1965.05 1483.76 1965.53 1487.7 Q1966.02 1491.63 1970.24 1496.35 Q1969.78 1493.96 1970.49 1491.75 Q1971.17 1489.52 1972.93 1487.77 Q1976.61 1484.09 1980.98 1484.2 Q1985.35 1484.28 1989.2 1488.13 Q1992.96 1491.89 1993.01 1496.39 Q1993.06 1500.9 1989.36 1504.6 Q1985.12 1508.83 1979.64 1507.84 Q1974.14 1506.82 1967.97 1500.65 Q1962.17 1494.86 1961.48 1488.67 Q1960.78 1482.47 1965.41 1477.83 Q1966.66 1476.59 1968.16 1475.57 Q1969.69 1474.54 1971.55 1473.66 Z" fill="#000000" fill-rule="evenodd" fill-opacity="1" /><path clip-path="url(#clip750)" d="M1998.92 1485.77 L2002.37 1482.32 L2005.19 1485.13 L2007.74 1493.06 L2005.63 1495.17 L2001.73 1488.59 L1998.92 1485.77 Z" fill="#000000" fill-rule="evenodd" fill-opacity="1" /><path clip-path="url(#clip750)" d="M2017.99 1447.95 Q2015.76 1450.17 2015.97 1453 Q2016.2 1455.82 2018.86 1458.47 Q2021.49 1461.11 2024.32 1461.35 Q2027.15 1461.56 2029.38 1459.34 Q2031.61 1457.11 2031.38 1454.3 Q2031.15 1451.45 2028.51 1448.81 Q2025.86 1446.16 2023.03 1445.95 Q2020.21 1445.72 2017.99 1447.95 M2014.19 1431.02 L2017.2 1434.03 Q2015.37 1434.69 2013.78 1435.65 Q2012.21 1436.6 2010.97 1437.85 Q2007.69 1441.12 2008.17 1445.06 Q2008.66 1448.99 2012.88 1453.71 Q2012.42 1451.32 2013.13 1449.11 Q2013.81 1446.88 2015.57 1445.13 Q2019.25 1441.45 2023.62 1441.56 Q2027.99 1441.64 2031.84 1445.49 Q2035.6 1449.25 2035.65 1453.76 Q2035.7 1458.26 2032 1461.96 Q2027.76 1466.2 2022.28 1465.2 Q2016.78 1464.18 2010.61 1458.01 Q2004.81 1452.22 2004.12 1446.03 Q2003.42 1439.83 2008.05 1435.19 Q2009.3 1433.95 2010.8 1432.94 Q2012.32 1431.9 2014.19 1431.02 Z" fill="#000000" fill-rule="evenodd" fill-opacity="1" /><path clip-path="url(#clip750)" d="M2041.56 1443.13 L2045.01 1439.68 L2047.83 1442.49 L2050.38 1450.42 L2048.27 1452.53 L2044.37 1445.95 L2041.56 1443.13 Z" fill="#000000" fill-rule="evenodd" fill-opacity="1" /><path clip-path="url(#clip750)" d="M2063.52 1403.13 Q2066.4 1401.26 2069.33 1401.54 Q2072.28 1401.8 2074.64 1404.16 Q2078.26 1407.78 2077.75 1412.25 Q2077.24 1416.71 2072.66 1421.3 Q2071.12 1422.84 2069.17 1424.16 Q2067.26 1425.49 2064.92 1426.62 L2061.72 1423.43 Q2063.9 1422.85 2065.95 1421.63 Q2067.99 1420.4 2069.78 1418.61 Q2072.89 1415.5 2073.28 1412.66 Q2073.69 1409.79 2071.35 1407.45 Q2069.19 1405.29 2066.45 1405.6 Q2063.72 1405.88 2061.02 1408.58 L2058.17 1411.43 L2055.45 1408.71 L2058.43 1405.73 Q2060.87 1403.29 2061.2 1401.03 Q2061.51 1398.76 2059.68 1396.93 Q2057.79 1395.04 2055.45 1395.39 Q2053.11 1395.7 2050.63 1398.19 Q2049.27 1399.54 2048.01 1401.39 Q2046.75 1403.24 2045.5 1405.73 L2042.56 1402.79 Q2043.91 1400.38 2045.29 1398.48 Q2046.68 1396.57 2048.14 1395.11 Q2051.9 1391.34 2055.81 1390.87 Q2059.71 1390.38 2062.62 1393.29 Q2064.65 1395.32 2064.9 1397.89 Q2065.13 1400.44 2063.52 1403.13 Z" fill="#000000" fill-rule="evenodd" fill-opacity="1" /><path clip-path="url(#clip750)" d="M2069.15 1372.91 L2099.04 1402.8 L2092.1 1409.74 L2089.76 1407.4 L2093.67 1403.49 L2068.47 1378.28 L2064.55 1382.19 L2062.21 1379.85 L2069.15 1372.91 Z" fill="#000000" fill-rule="evenodd" fill-opacity="1" /><path clip-path="url(#clip750)" d="M2047.35 1499.91 L2054.29 1492.97 L2056.63 1495.31 L2052.7 1499.24 L2077.91 1524.45 L2081.84 1520.52 L2084.18 1522.86 L2077.24 1529.8 L2047.35 1499.91 Z" fill="#000000" fill-rule="evenodd" fill-opacity="1" /><path clip-path="url(#clip750)" d="M2061.33 1488 L2077.04 1472.28 L2078.45 1473.69 L2092.61 1505.59 L2089.15 1509.05 L2075.85 1479.04 L2064.11 1490.78 L2061.33 1488 Z" fill="#000000" fill-rule="evenodd" fill-opacity="1" /><path clip-path="url(#clip750)" d="M2104.11 1485.77 L2107.57 1482.32 L2110.38 1485.13 L2112.94 1493.06 L2110.82 1495.17 L2106.93 1488.59 L2104.11 1485.77 Z" fill="#000000" fill-rule="evenodd" fill-opacity="1" /><path clip-path="url(#clip750)" d="M2104.83 1444.49 L2117.81 1431.51 L2120.6 1434.29 L2110.64 1444.25 L2116.64 1450.24 Q2117.11 1449.27 2117.72 1448.44 Q2118.31 1447.58 2119.03 1446.86 Q2123.12 1442.77 2127.75 1442.63 Q2132.38 1442.48 2136.21 1446.31 Q2140.16 1450.25 2139.89 1454.9 Q2139.62 1459.53 2135.15 1464 Q2133.61 1465.54 2131.74 1466.88 Q2129.89 1468.21 2127.67 1469.39 L2124.34 1466.06 Q2126.62 1465.39 2128.58 1464.21 Q2130.55 1463.04 2132.3 1461.29 Q2135.13 1458.45 2135.3 1455.31 Q2135.46 1452.17 2132.91 1449.61 Q2130.35 1447.06 2127.21 1447.22 Q2124.07 1447.39 2121.23 1450.22 Q2119.91 1451.55 2118.88 1453.17 Q2117.86 1454.77 2117.11 1456.77 L2104.83 1444.49 Z" fill="#000000" fill-rule="evenodd" fill-opacity="1" /><path clip-path="url(#clip750)" d="M2146.75 1443.13 L2150.21 1439.68 L2153.02 1442.49 L2155.58 1450.42 L2153.46 1452.53 L2149.57 1445.95 L2146.75 1443.13 Z" fill="#000000" fill-rule="evenodd" fill-opacity="1" /><path clip-path="url(#clip750)" d="M2168.72 1403.13 Q2171.6 1401.26 2174.53 1401.54 Q2177.48 1401.8 2179.83 1404.16 Q2183.45 1407.78 2182.94 1412.25 Q2182.44 1416.71 2177.85 1421.3 Q2176.31 1422.84 2174.37 1424.16 Q2172.45 1425.49 2170.11 1426.62 L2166.92 1423.43 Q2169.1 1422.85 2171.14 1421.63 Q2173.19 1420.4 2174.97 1418.61 Q2178.08 1415.5 2178.47 1412.66 Q2178.88 1409.79 2176.54 1407.45 Q2174.38 1405.29 2171.65 1405.6 Q2168.92 1405.88 2166.21 1408.58 L2163.37 1411.43 L2160.65 1408.71 L2163.63 1405.73 Q2166.07 1403.29 2166.39 1401.03 Q2166.71 1398.76 2164.87 1396.93 Q2162.99 1395.04 2160.65 1395.39 Q2158.31 1395.7 2155.82 1398.19 Q2154.46 1399.54 2153.2 1401.39 Q2151.94 1403.24 2150.7 1405.73 L2147.75 1402.79 Q2149.11 1400.38 2150.48 1398.48 Q2151.88 1396.57 2153.33 1395.11 Q2157.1 1391.34 2161.01 1390.87 Q2164.91 1390.38 2167.82 1393.29 Q2169.85 1395.32 2170.09 1397.89 Q2170.32 1400.44 2168.72 1403.13 Z" fill="#000000" fill-rule="evenodd" fill-opacity="1" /><path clip-path="url(#clip750)" d="M2174.35 1372.91 L2204.24 1402.8 L2197.3 1409.74 L2194.96 1407.4 L2198.87 1403.49 L2173.66 1378.28 L2169.75 1382.19 L2167.41 1379.85 L2174.35 1372.91 Z" fill="#000000" fill-rule="evenodd" fill-opacity="1" /><path clip-path="url(#clip750)" d="M2152.54 1499.91 L2159.48 1492.97 L2161.83 1495.31 L2157.9 1499.24 L2183.1 1524.45 L2187.03 1520.52 L2189.37 1522.86 L2182.43 1529.8 L2152.54 1499.91 Z" fill="#000000" fill-rule="evenodd" fill-opacity="1" /><path clip-path="url(#clip750)" d="M2166.52 1488 L2182.24 1472.28 L2183.64 1473.69 L2197.8 1505.59 L2194.35 1509.05 L2181.04 1479.04 L2169.31 1490.78 L2166.52 1488 Z" fill="#000000" fill-rule="evenodd" fill-opacity="1" /><path clip-path="url(#clip750)" d="M2209.31 1485.77 L2212.76 1482.32 L2215.58 1485.13 L2218.13 1493.06 L2216.02 1495.17 L2212.12 1488.59 L2209.31 1485.77 Z" fill="#000000" fill-rule="evenodd" fill-opacity="1" /><path clip-path="url(#clip750)" d="M2210.03 1444.49 L2223.01 1431.51 L2225.79 1434.29 L2215.84 1444.25 L2221.83 1450.24 Q2222.31 1449.27 2222.91 1448.44 Q2223.5 1447.58 2224.22 1446.86 Q2228.31 1442.77 2232.94 1442.63 Q2237.58 1442.48 2241.41 1446.31 Q2245.35 1450.25 2245.09 1454.9 Q2244.81 1459.53 2240.34 1464 Q2238.8 1465.54 2236.94 1466.88 Q2235.09 1468.21 2232.86 1469.39 L2229.54 1466.06 Q2231.82 1465.39 2233.78 1464.21 Q2235.74 1463.04 2237.49 1461.29 Q2240.33 1458.45 2240.49 1455.31 Q2240.65 1452.17 2238.1 1449.61 Q2235.55 1447.06 2232.4 1447.22 Q2229.26 1447.39 2226.43 1450.22 Q2225.1 1451.55 2224.07 1453.17 Q2223.06 1454.77 2222.31 1456.77 L2210.03 1444.49 Z" fill="#000000" fill-rule="evenodd" fill-opacity="1" /><path clip-path="url(#clip750)" d="M2251.95 1443.13 L2255.4 1439.68 L2258.22 1442.49 L2260.77 1450.42 L2258.66 1452.53 L2254.76 1445.95 L2251.95 1443.13 Z" fill="#000000" fill-rule="evenodd" fill-opacity="1" /><path clip-path="url(#clip750)" d="M2252.67 1401.85 L2265.65 1388.87 L2268.43 1391.66 L2258.48 1401.61 L2264.47 1407.6 Q2264.94 1406.63 2265.55 1405.8 Q2266.14 1404.95 2266.86 1404.23 Q2270.95 1400.13 2275.58 1399.99 Q2280.22 1399.84 2284.05 1403.67 Q2287.99 1407.61 2287.73 1412.26 Q2287.45 1416.89 2282.98 1421.36 Q2281.44 1422.9 2279.58 1424.24 Q2277.73 1425.57 2275.5 1426.75 L2272.18 1423.43 Q2274.45 1422.75 2276.42 1421.58 Q2278.38 1420.4 2280.13 1418.65 Q2282.97 1415.81 2283.13 1412.67 Q2283.29 1409.53 2280.74 1406.98 Q2278.19 1404.42 2275.04 1404.59 Q2271.9 1404.75 2269.07 1407.58 Q2267.74 1408.91 2266.71 1410.53 Q2265.7 1412.13 2264.94 1414.13 L2252.67 1401.85 Z" fill="#000000" fill-rule="evenodd" fill-opacity="1" /><path clip-path="url(#clip750)" d="M2279.54 1372.91 L2309.43 1402.8 L2302.49 1409.74 L2300.15 1407.4 L2304.06 1403.49 L2278.86 1378.28 L2274.95 1382.19 L2272.6 1379.85 L2279.54 1372.91 Z" fill="#000000" fill-rule="evenodd" fill-opacity="1" /><path clip-path="url(#clip750)" d="M998.74 1557.8 L1005.17 1557.8 L1005.17 1605.32 L998.74 1605.32 L998.74 1557.8 Z" fill="#000000" fill-rule="evenodd" fill-opacity="1" /><path clip-path="url(#clip750)" d="M1047.34 1583.8 L1047.34 1605.32 L1041.49 1605.32 L1041.49 1583.99 Q1041.49 1578.93 1039.51 1576.42 Q1037.54 1573.9 1033.59 1573.9 Q1028.85 1573.9 1026.11 1576.93 Q1023.38 1579.95 1023.38 1585.17 L1023.38 1605.32 L1017.49 1605.32 L1017.49 1569.67 L1023.38 1569.67 L1023.38 1575.21 Q1025.48 1571.99 1028.31 1570.4 Q1031.17 1568.81 1034.9 1568.81 Q1041.04 1568.81 1044.19 1572.63 Q1047.34 1576.42 1047.34 1583.8 Z" fill="#000000" fill-rule="evenodd" fill-opacity="1" /><path clip-path="url(#clip750)" d="M1081.75 1570.72 L1081.75 1576.26 Q1079.27 1574.98 1076.59 1574.35 Q1073.92 1573.71 1071.05 1573.71 Q1066.69 1573.71 1064.5 1575.05 Q1062.33 1576.38 1062.33 1579.06 Q1062.33 1581.09 1063.89 1582.27 Q1065.45 1583.42 1070.16 1584.47 L1072.17 1584.91 Q1078.41 1586.25 1081.02 1588.7 Q1083.66 1591.12 1083.66 1595.48 Q1083.66 1600.45 1079.71 1603.34 Q1075.8 1606.24 1068.92 1606.24 Q1066.06 1606.24 1062.94 1605.67 Q1059.85 1605.13 1056.41 1604.01 L1056.41 1597.96 Q1059.66 1599.65 1062.81 1600.51 Q1065.96 1601.34 1069.05 1601.34 Q1073.19 1601.34 1075.42 1599.94 Q1077.64 1598.5 1077.64 1595.93 Q1077.64 1593.54 1076.02 1592.27 Q1074.43 1590.99 1068.99 1589.82 L1066.95 1589.34 Q1061.51 1588.19 1059.09 1585.84 Q1056.67 1583.45 1056.67 1579.31 Q1056.67 1574.28 1060.23 1571.55 Q1063.8 1568.81 1070.35 1568.81 Q1073.6 1568.81 1076.47 1569.29 Q1079.33 1569.76 1081.75 1570.72 Z" fill="#000000" fill-rule="evenodd" fill-opacity="1" /><path clip-path="url(#clip750)" d="M1098.78 1559.55 L1098.78 1569.67 L1110.84 1569.67 L1110.84 1574.22 L1098.78 1574.22 L1098.78 1593.57 Q1098.78 1597.93 1099.96 1599.17 Q1101.16 1600.41 1104.82 1600.41 L1110.84 1600.41 L1110.84 1605.32 L1104.82 1605.32 Q1098.05 1605.32 1095.47 1602.8 Q1092.89 1600.26 1092.89 1593.57 L1092.89 1574.22 L1088.59 1574.22 L1088.59 1569.67 L1092.89 1569.67 L1092.89 1559.55 L1098.78 1559.55 Z" fill="#000000" fill-rule="evenodd" fill-opacity="1" /><path clip-path="url(#clip750)" d="M1134.74 1587.4 Q1127.65 1587.4 1124.91 1589.02 Q1122.17 1590.64 1122.17 1594.56 Q1122.17 1597.68 1124.21 1599.52 Q1126.28 1601.34 1129.81 1601.34 Q1134.68 1601.34 1137.61 1597.9 Q1140.57 1594.43 1140.57 1588.7 L1140.57 1587.4 L1134.74 1587.4 M1146.42 1584.98 L1146.42 1605.32 L1140.57 1605.32 L1140.57 1599.91 Q1138.56 1603.15 1135.57 1604.71 Q1132.58 1606.24 1128.25 1606.24 Q1122.78 1606.24 1119.53 1603.18 Q1116.31 1600.1 1116.31 1594.94 Q1116.31 1588.92 1120.33 1585.87 Q1124.37 1582.81 1132.36 1582.81 L1140.57 1582.81 L1140.57 1582.24 Q1140.57 1578.2 1137.89 1576 Q1135.25 1573.77 1130.45 1573.77 Q1127.39 1573.77 1124.49 1574.51 Q1121.6 1575.24 1118.92 1576.7 L1118.92 1571.29 Q1122.14 1570.05 1125.16 1569.45 Q1128.19 1568.81 1131.05 1568.81 Q1138.79 1568.81 1142.61 1572.82 Q1146.42 1576.83 1146.42 1584.98 Z" fill="#000000" fill-rule="evenodd" fill-opacity="1" /><path clip-path="url(#clip750)" d="M1188.12 1583.8 L1188.12 1605.32 L1182.26 1605.32 L1182.26 1583.99 Q1182.26 1578.93 1180.29 1576.42 Q1178.32 1573.9 1174.37 1573.9 Q1169.63 1573.9 1166.89 1576.93 Q1164.15 1579.95 1164.15 1585.17 L1164.15 1605.32 L1158.26 1605.32 L1158.26 1569.67 L1164.15 1569.67 L1164.15 1575.21 Q1166.25 1571.99 1169.09 1570.4 Q1171.95 1568.81 1175.68 1568.81 Q1181.82 1568.81 1184.97 1572.63 Q1188.12 1576.42 1188.12 1583.8 Z" fill="#000000" fill-rule="evenodd" fill-opacity="1" /><path clip-path="url(#clip750)" d="M1225.45 1571.04 L1225.45 1576.51 Q1222.97 1575.14 1220.46 1574.47 Q1217.98 1573.77 1215.43 1573.77 Q1209.73 1573.77 1206.58 1577.4 Q1203.43 1581 1203.43 1587.52 Q1203.43 1594.05 1206.58 1597.68 Q1209.73 1601.27 1215.43 1601.27 Q1217.98 1601.27 1220.46 1600.61 Q1222.97 1599.91 1225.45 1598.54 L1225.45 1603.95 Q1223 1605.09 1220.36 1605.67 Q1217.75 1606.24 1214.79 1606.24 Q1206.74 1606.24 1202 1601.18 Q1197.25 1596.12 1197.25 1587.52 Q1197.25 1578.8 1202.03 1573.81 Q1206.84 1568.81 1215.17 1568.81 Q1217.88 1568.81 1220.46 1569.38 Q1223.04 1569.92 1225.45 1571.04 Z" fill="#000000" fill-rule="evenodd" fill-opacity="1" /><path clip-path="url(#clip750)" d="M1266.13 1586.03 L1266.13 1588.89 L1239.2 1588.89 Q1239.59 1594.94 1242.83 1598.12 Q1246.11 1601.27 1251.94 1601.27 Q1255.31 1601.27 1258.46 1600.45 Q1261.64 1599.62 1264.76 1597.96 L1264.76 1603.5 Q1261.61 1604.84 1258.3 1605.54 Q1254.99 1606.24 1251.59 1606.24 Q1243.06 1606.24 1238.06 1601.27 Q1233.09 1596.31 1233.09 1587.84 Q1233.09 1579.09 1237.8 1573.96 Q1242.55 1568.81 1250.57 1568.81 Q1257.76 1568.81 1261.93 1573.46 Q1266.13 1578.07 1266.13 1586.03 M1260.28 1584.31 Q1260.21 1579.5 1257.57 1576.64 Q1254.96 1573.77 1250.63 1573.77 Q1245.73 1573.77 1242.77 1576.54 Q1239.84 1579.31 1239.4 1584.34 L1260.28 1584.31 Z" fill="#000000" fill-rule="evenodd" fill-opacity="1" /><path clip-path="url(#clip750)" d="M1298.47 1570.72 L1298.47 1576.26 Q1295.99 1574.98 1293.31 1574.35 Q1290.64 1573.71 1287.78 1573.71 Q1283.41 1573.71 1281.22 1575.05 Q1279.05 1576.38 1279.05 1579.06 Q1279.05 1581.09 1280.61 1582.27 Q1282.17 1583.42 1286.88 1584.47 L1288.89 1584.91 Q1295.13 1586.25 1297.74 1588.7 Q1300.38 1591.12 1300.38 1595.48 Q1300.38 1600.45 1296.43 1603.34 Q1292.52 1606.24 1285.64 1606.24 Q1282.78 1606.24 1279.66 1605.67 Q1276.57 1605.13 1273.13 1604.01 L1273.13 1597.96 Q1276.38 1599.65 1279.53 1600.51 Q1282.68 1601.34 1285.77 1601.34 Q1289.91 1601.34 1292.14 1599.94 Q1294.36 1598.5 1294.36 1595.93 Q1294.36 1593.54 1292.74 1592.27 Q1291.15 1590.99 1285.71 1589.82 L1283.67 1589.34 Q1278.23 1588.19 1275.81 1585.84 Q1273.39 1583.45 1273.39 1579.31 Q1273.39 1574.28 1276.95 1571.55 Q1280.52 1568.81 1287.07 1568.81 Q1290.32 1568.81 1293.19 1569.29 Q1296.05 1569.76 1298.47 1570.72 Z" fill="#000000" fill-rule="evenodd" fill-opacity="1" /><path clip-path="url(#clip750)" d="M1366.26 1561.46 L1366.26 1568.24 Q1363.02 1565.21 1359.33 1563.72 Q1355.67 1562.22 1351.53 1562.22 Q1343.38 1562.22 1339.05 1567.22 Q1334.72 1572.18 1334.72 1581.6 Q1334.72 1590.99 1339.05 1595.99 Q1343.38 1600.96 1351.53 1600.96 Q1355.67 1600.96 1359.33 1599.46 Q1363.02 1597.96 1366.26 1594.94 L1366.26 1601.66 Q1362.89 1603.95 1359.1 1605.09 Q1355.35 1606.24 1351.15 1606.24 Q1340.36 1606.24 1334.15 1599.65 Q1327.94 1593.03 1327.94 1581.6 Q1327.94 1570.15 1334.15 1563.56 Q1340.36 1556.94 1351.15 1556.94 Q1355.41 1556.94 1359.17 1558.08 Q1362.95 1559.2 1366.26 1561.46 Z" fill="#000000" fill-rule="evenodd" fill-opacity="1" /><path clip-path="url(#clip750)" d="M1392.14 1587.4 Q1385.04 1587.4 1382.31 1589.02 Q1379.57 1590.64 1379.57 1594.56 Q1379.57 1597.68 1381.61 1599.52 Q1383.67 1601.34 1387.21 1601.34 Q1392.08 1601.34 1395.01 1597.9 Q1397.97 1594.43 1397.97 1588.7 L1397.97 1587.4 L1392.14 1587.4 M1403.82 1584.98 L1403.82 1605.32 L1397.97 1605.32 L1397.97 1599.91 Q1395.96 1603.15 1392.97 1604.71 Q1389.98 1606.24 1385.65 1606.24 Q1380.17 1606.24 1376.93 1603.18 Q1373.71 1600.1 1373.71 1594.94 Q1373.71 1588.92 1377.72 1585.87 Q1381.76 1582.81 1389.75 1582.81 L1397.97 1582.81 L1397.97 1582.24 Q1397.97 1578.2 1395.29 1576 Q1392.65 1573.77 1387.84 1573.77 Q1384.79 1573.77 1381.89 1574.51 Q1379 1575.24 1376.32 1576.7 L1376.32 1571.29 Q1379.54 1570.05 1382.56 1569.45 Q1385.58 1568.81 1388.45 1568.81 Q1396.18 1568.81 1400 1572.82 Q1403.82 1576.83 1403.82 1584.98 Z" fill="#000000" fill-rule="evenodd" fill-opacity="1" /><path clip-path="url(#clip750)" d="M1436.54 1575.14 Q1435.56 1574.57 1434.38 1574.32 Q1433.23 1574.03 1431.83 1574.03 Q1426.87 1574.03 1424.19 1577.28 Q1421.55 1580.49 1421.55 1586.54 L1421.55 1605.32 L1415.66 1605.32 L1415.66 1569.67 L1421.55 1569.67 L1421.55 1575.21 Q1423.4 1571.96 1426.36 1570.4 Q1429.32 1568.81 1433.55 1568.81 Q1434.15 1568.81 1434.89 1568.9 Q1435.62 1568.97 1436.51 1569.13 L1436.54 1575.14 Z" fill="#000000" fill-rule="evenodd" fill-opacity="1" /><path clip-path="url(#clip750)" d="M1465 1575.08 L1465 1555.79 L1470.85 1555.79 L1470.85 1605.32 L1465 1605.32 L1465 1599.97 Q1463.15 1603.15 1460.32 1604.71 Q1457.52 1606.24 1453.57 1606.24 Q1447.11 1606.24 1443.03 1601.08 Q1438.99 1595.93 1438.99 1587.52 Q1438.99 1579.12 1443.03 1573.96 Q1447.11 1568.81 1453.57 1568.81 Q1457.52 1568.81 1460.32 1570.37 Q1463.15 1571.9 1465 1575.08 M1445.04 1587.52 Q1445.04 1593.99 1447.68 1597.68 Q1450.36 1601.34 1455 1601.34 Q1459.65 1601.34 1462.32 1597.68 Q1465 1593.99 1465 1587.52 Q1465 1581.06 1462.32 1577.4 Q1459.65 1573.71 1455 1573.71 Q1450.36 1573.71 1447.68 1577.4 Q1445.04 1581.06 1445.04 1587.52 Z" fill="#000000" fill-rule="evenodd" fill-opacity="1" /><path clip-path="url(#clip750)" d="M1482.92 1569.67 L1488.77 1569.67 L1488.77 1605.32 L1482.92 1605.32 L1482.92 1569.67 M1482.92 1555.79 L1488.77 1555.79 L1488.77 1563.21 L1482.92 1563.21 L1482.92 1555.79 Z" fill="#000000" fill-rule="evenodd" fill-opacity="1" /><path clip-path="url(#clip750)" d="M1530.66 1583.8 L1530.66 1605.32 L1524.8 1605.32 L1524.8 1583.99 Q1524.8 1578.93 1522.83 1576.42 Q1520.86 1573.9 1516.91 1573.9 Q1512.17 1573.9 1509.43 1576.93 Q1506.69 1579.95 1506.69 1585.17 L1506.69 1605.32 L1500.8 1605.32 L1500.8 1569.67 L1506.69 1569.67 L1506.69 1575.21 Q1508.79 1571.99 1511.63 1570.4 Q1514.49 1568.81 1518.21 1568.81 Q1524.36 1568.81 1527.51 1572.63 Q1530.66 1576.42 1530.66 1583.8 Z" fill="#000000" fill-rule="evenodd" fill-opacity="1" /><path clip-path="url(#clip750)" d="M1558.54 1587.4 Q1551.44 1587.4 1548.71 1589.02 Q1545.97 1590.64 1545.97 1594.56 Q1545.97 1597.68 1548.01 1599.52 Q1550.07 1601.34 1553.61 1601.34 Q1558.48 1601.34 1561.41 1597.9 Q1564.37 1594.43 1564.37 1588.7 L1564.37 1587.4 L1558.54 1587.4 M1570.22 1584.98 L1570.22 1605.32 L1564.37 1605.32 L1564.37 1599.91 Q1562.36 1603.15 1559.37 1604.71 Q1556.38 1606.24 1552.05 1606.24 Q1546.57 1606.24 1543.33 1603.18 Q1540.11 1600.1 1540.11 1594.94 Q1540.11 1588.92 1544.12 1585.87 Q1548.16 1582.81 1556.15 1582.81 L1564.37 1582.81 L1564.37 1582.24 Q1564.37 1578.2 1561.69 1576 Q1559.05 1573.77 1554.24 1573.77 Q1551.19 1573.77 1548.29 1574.51 Q1545.4 1575.24 1542.72 1576.7 L1542.72 1571.29 Q1545.94 1570.05 1548.96 1569.45 Q1551.98 1568.81 1554.85 1568.81 Q1562.58 1568.81 1566.4 1572.82 Q1570.22 1576.83 1570.22 1584.98 Z" fill="#000000" fill-rule="evenodd" fill-opacity="1" /><path clip-path="url(#clip750)" d="M1582.28 1555.79 L1588.14 1555.79 L1588.14 1605.32 L1582.28 1605.32 L1582.28 1555.79 Z" fill="#000000" fill-rule="evenodd" fill-opacity="1" /><polyline clip-path="url(#clip752)" style="stroke:#000000; stroke-linecap:round; stroke-linejoin:round; stroke-width:2; stroke-opacity:0.1; fill:none" points="
  234.125,1311.88 2352.76,1311.88 
  "/>
<polyline clip-path="url(#clip752)" style="stroke:#000000; stroke-linecap:round; stroke-linejoin:round; stroke-width:2; stroke-opacity:0.1; fill:none" points="
  234.125,1005.17 2352.76,1005.17 
  "/>
<polyline clip-path="url(#clip752)" style="stroke:#000000; stroke-linecap:round; stroke-linejoin:round; stroke-width:2; stroke-opacity:0.1; fill:none" points="
  234.125,698.455 2352.76,698.455 
  "/>
<polyline clip-path="url(#clip752)" style="stroke:#000000; stroke-linecap:round; stroke-linejoin:round; stroke-width:2; stroke-opacity:0.1; fill:none" points="
  234.125,391.741 2352.76,391.741 
  "/>
<polyline clip-path="url(#clip752)" style="stroke:#000000; stroke-linecap:round; stroke-linejoin:round; stroke-width:2; stroke-opacity:0.1; fill:none" points="
  234.125,85.0267 2352.76,85.0267 
  "/>
<polyline clip-path="url(#clip750)" style="stroke:#000000; stroke-linecap:round; stroke-linejoin:round; stroke-width:4; stroke-opacity:1; fill:none" points="
  234.125,1348.64 234.125,47.2441 
  "/>
<polyline clip-path="url(#clip750)" style="stroke:#000000; stroke-linecap:round; stroke-linejoin:round; stroke-width:4; stroke-opacity:1; fill:none" points="
  234.125,1311.88 253.023,1311.88 
  "/>
<polyline clip-path="url(#clip750)" style="stroke:#000000; stroke-linecap:round; stroke-linejoin:round; stroke-width:4; stroke-opacity:1; fill:none" points="
  234.125,1005.17 253.023,1005.17 
  "/>
<polyline clip-path="url(#clip750)" style="stroke:#000000; stroke-linecap:round; stroke-linejoin:round; stroke-width:4; stroke-opacity:1; fill:none" points="
  234.125,698.455 253.023,698.455 
  "/>
<polyline clip-path="url(#clip750)" style="stroke:#000000; stroke-linecap:round; stroke-linejoin:round; stroke-width:4; stroke-opacity:1; fill:none" points="
  234.125,391.741 253.023,391.741 
  "/>
<polyline clip-path="url(#clip750)" style="stroke:#000000; stroke-linecap:round; stroke-linejoin:round; stroke-width:4; stroke-opacity:1; fill:none" points="
  234.125,85.0267 253.023,85.0267 
  "/>
<path clip-path="url(#clip750)" d="M186.181 1297.68 Q182.57 1297.68 180.741 1301.25 Q178.936 1304.79 178.936 1311.92 Q178.936 1319.02 180.741 1322.59 Q182.57 1326.13 186.181 1326.13 Q189.815 1326.13 191.621 1322.59 Q193.45 1319.02 193.45 1311.92 Q193.45 1304.79 191.621 1301.25 Q189.815 1297.68 186.181 1297.68 M186.181 1293.98 Q191.991 1293.98 195.047 1298.58 Q198.125 1303.17 198.125 1311.92 Q198.125 1320.64 195.047 1325.25 Q191.991 1329.83 186.181 1329.83 Q180.371 1329.83 177.292 1325.25 Q174.237 1320.64 174.237 1311.92 Q174.237 1303.17 177.292 1298.58 Q180.371 1293.98 186.181 1293.98 Z" fill="#000000" fill-rule="evenodd" fill-opacity="1" /><path clip-path="url(#clip750)" d="M146.066 987.889 L164.422 987.889 L164.422 991.824 L150.348 991.824 L150.348 1000.3 Q151.366 999.949 152.385 999.787 Q153.403 999.602 154.422 999.602 Q160.209 999.602 163.589 1002.77 Q166.968 1005.94 166.968 1011.36 Q166.968 1016.94 163.496 1020.04 Q160.024 1023.12 153.704 1023.12 Q151.528 1023.12 149.26 1022.75 Q147.015 1022.38 144.607 1021.64 L144.607 1016.94 Q146.691 1018.07 148.913 1018.63 Q151.135 1019.19 153.612 1019.19 Q157.616 1019.19 159.954 1017.08 Q162.292 1014.97 162.292 1011.36 Q162.292 1007.75 159.954 1005.64 Q157.616 1003.54 153.612 1003.54 Q151.737 1003.54 149.862 1003.95 Q148.01 1004.37 146.066 1005.25 L146.066 987.889 Z" fill="#000000" fill-rule="evenodd" fill-opacity="1" /><path clip-path="url(#clip750)" d="M186.181 990.968 Q182.57 990.968 180.741 994.533 Q178.936 998.074 178.936 1005.2 Q178.936 1012.31 180.741 1015.88 Q182.57 1019.42 186.181 1019.42 Q189.815 1019.42 191.621 1015.88 Q193.45 1012.31 193.45 1005.2 Q193.45 998.074 191.621 994.533 Q189.815 990.968 186.181 990.968 M186.181 987.264 Q191.991 987.264 195.047 991.871 Q198.125 996.454 198.125 1005.2 Q198.125 1013.93 195.047 1018.54 Q191.991 1023.12 186.181 1023.12 Q180.371 1023.12 177.292 1018.54 Q174.237 1013.93 174.237 1005.2 Q174.237 996.454 177.292 991.871 Q180.371 987.264 186.181 987.264 Z" fill="#000000" fill-rule="evenodd" fill-opacity="1" /><path clip-path="url(#clip750)" d="M116.668 711.8 L124.306 711.8 L124.306 685.434 L115.996 687.101 L115.996 682.842 L124.26 681.175 L128.936 681.175 L128.936 711.8 L136.575 711.8 L136.575 715.735 L116.668 715.735 L116.668 711.8 Z" fill="#000000" fill-rule="evenodd" fill-opacity="1" /><path clip-path="url(#clip750)" d="M156.019 684.254 Q152.408 684.254 150.579 687.818 Q148.774 691.36 148.774 698.49 Q148.774 705.596 150.579 709.161 Q152.408 712.703 156.019 712.703 Q159.653 712.703 161.459 709.161 Q163.288 705.596 163.288 698.49 Q163.288 691.36 161.459 687.818 Q159.653 684.254 156.019 684.254 M156.019 680.55 Q161.829 680.55 164.885 685.156 Q167.964 689.74 167.964 698.49 Q167.964 707.217 164.885 711.823 Q161.829 716.406 156.019 716.406 Q150.209 716.406 147.13 711.823 Q144.075 707.217 144.075 698.49 Q144.075 689.74 147.13 685.156 Q150.209 680.55 156.019 680.55 Z" fill="#000000" fill-rule="evenodd" fill-opacity="1" /><path clip-path="url(#clip750)" d="M186.181 684.254 Q182.57 684.254 180.741 687.818 Q178.936 691.36 178.936 698.49 Q178.936 705.596 180.741 709.161 Q182.57 712.703 186.181 712.703 Q189.815 712.703 191.621 709.161 Q193.45 705.596 193.45 698.49 Q193.45 691.36 191.621 687.818 Q189.815 684.254 186.181 684.254 M186.181 680.55 Q191.991 680.55 195.047 685.156 Q198.125 689.74 198.125 698.49 Q198.125 707.217 195.047 711.823 Q191.991 716.406 186.181 716.406 Q180.371 716.406 177.292 711.823 Q174.237 707.217 174.237 698.49 Q174.237 689.74 177.292 685.156 Q180.371 680.55 186.181 680.55 Z" fill="#000000" fill-rule="evenodd" fill-opacity="1" /><path clip-path="url(#clip750)" d="M116.668 405.086 L124.306 405.086 L124.306 378.72 L115.996 380.387 L115.996 376.128 L124.26 374.461 L128.936 374.461 L128.936 405.086 L136.575 405.086 L136.575 409.021 L116.668 409.021 L116.668 405.086 Z" fill="#000000" fill-rule="evenodd" fill-opacity="1" /><path clip-path="url(#clip750)" d="M146.066 374.461 L164.422 374.461 L164.422 378.396 L150.348 378.396 L150.348 386.868 Q151.366 386.521 152.385 386.359 Q153.403 386.174 154.422 386.174 Q160.209 386.174 163.589 389.345 Q166.968 392.516 166.968 397.933 Q166.968 403.512 163.496 406.613 Q160.024 409.692 153.704 409.692 Q151.528 409.692 149.26 409.322 Q147.015 408.951 144.607 408.211 L144.607 403.512 Q146.691 404.646 148.913 405.201 Q151.135 405.757 153.612 405.757 Q157.616 405.757 159.954 403.651 Q162.292 401.544 162.292 397.933 Q162.292 394.322 159.954 392.215 Q157.616 390.109 153.612 390.109 Q151.737 390.109 149.862 390.526 Q148.01 390.942 146.066 391.822 L146.066 374.461 Z" fill="#000000" fill-rule="evenodd" fill-opacity="1" /><path clip-path="url(#clip750)" d="M186.181 377.54 Q182.57 377.54 180.741 381.104 Q178.936 384.646 178.936 391.776 Q178.936 398.882 180.741 402.447 Q182.57 405.988 186.181 405.988 Q189.815 405.988 191.621 402.447 Q193.45 398.882 193.45 391.776 Q193.45 384.646 191.621 381.104 Q189.815 377.54 186.181 377.54 M186.181 373.836 Q191.991 373.836 195.047 378.442 Q198.125 383.026 198.125 391.776 Q198.125 400.502 195.047 405.109 Q191.991 409.692 186.181 409.692 Q180.371 409.692 177.292 405.109 Q174.237 400.502 174.237 391.776 Q174.237 383.026 177.292 378.442 Q180.371 373.836 186.181 373.836 Z" fill="#000000" fill-rule="evenodd" fill-opacity="1" /><path clip-path="url(#clip750)" d="M119.885 98.3716 L136.204 98.3716 L136.204 102.307 L114.26 102.307 L114.26 98.3716 Q116.922 95.617 121.505 90.9874 Q126.112 86.3346 127.292 84.992 Q129.538 82.4689 130.417 80.7328 Q131.32 78.9735 131.32 77.2837 Q131.32 74.5291 129.376 72.793 Q127.455 71.0569 124.353 71.0569 Q122.154 71.0569 119.7 71.8208 Q117.269 72.5847 114.492 74.1356 L114.492 69.4134 Q117.316 68.2791 119.769 67.7004 Q122.223 67.1217 124.26 67.1217 Q129.63 67.1217 132.825 69.8069 Q136.019 72.4921 136.019 76.9828 Q136.019 79.1124 135.209 81.0337 Q134.422 82.9318 132.316 85.5244 Q131.737 86.1957 128.635 89.4133 Q125.533 92.6077 119.885 98.3716 Z" fill="#000000" fill-rule="evenodd" fill-opacity="1" /><path clip-path="url(#clip750)" d="M156.019 70.8254 Q152.408 70.8254 150.579 74.3902 Q148.774 77.9319 148.774 85.0615 Q148.774 92.1679 150.579 95.7327 Q152.408 99.2743 156.019 99.2743 Q159.653 99.2743 161.459 95.7327 Q163.288 92.1679 163.288 85.0615 Q163.288 77.9319 161.459 74.3902 Q159.653 70.8254 156.019 70.8254 M156.019 67.1217 Q161.829 67.1217 164.885 71.7282 Q167.964 76.3115 167.964 85.0615 Q167.964 93.7883 164.885 98.3947 Q161.829 102.978 156.019 102.978 Q150.209 102.978 147.13 98.3947 Q144.075 93.7883 144.075 85.0615 Q144.075 76.3115 147.13 71.7282 Q150.209 67.1217 156.019 67.1217 Z" fill="#000000" fill-rule="evenodd" fill-opacity="1" /><path clip-path="url(#clip750)" d="M186.181 70.8254 Q182.57 70.8254 180.741 74.3902 Q178.936 77.9319 178.936 85.0615 Q178.936 92.1679 180.741 95.7327 Q182.57 99.2743 186.181 99.2743 Q189.815 99.2743 191.621 95.7327 Q193.45 92.1679 193.45 85.0615 Q193.45 77.9319 191.621 74.3902 Q189.815 70.8254 186.181 70.8254 M186.181 67.1217 Q191.991 67.1217 195.047 71.7282 Q198.125 76.3115 198.125 85.0615 Q198.125 93.7883 195.047 98.3947 Q191.991 102.978 186.181 102.978 Q180.371 102.978 177.292 98.3947 Q174.237 93.7883 174.237 85.0615 Q174.237 76.3115 177.292 71.7282 Q180.371 67.1217 186.181 67.1217 Z" fill="#000000" fill-rule="evenodd" fill-opacity="1" /><path clip-path="url(#clip750)" d="M18.2347 783.734 L28.3562 783.734 L28.3562 771.671 L32.9077 771.671 L32.9077 783.734 L52.2594 783.734 Q56.6199 783.734 57.8613 782.556 Q59.1026 781.346 59.1026 777.686 L59.1026 771.671 L64.0042 771.671 L64.0042 777.686 Q64.0042 784.466 61.4897 787.044 Q58.9434 789.622 52.2594 789.622 L32.9077 789.622 L32.9077 793.919 L28.3562 793.919 L28.3562 789.622 L18.2347 789.622 L18.2347 783.734 Z" fill="#000000" fill-rule="evenodd" fill-opacity="1" /><path clip-path="url(#clip750)" d="M44.7161 712.756 L47.5806 712.756 L47.5806 739.683 Q53.6281 739.301 56.8109 736.054 Q59.9619 732.776 59.9619 726.951 Q59.9619 723.578 59.1344 720.427 Q58.3069 717.244 56.6518 714.125 L62.1899 714.125 Q63.5267 717.276 64.227 720.586 Q64.9272 723.896 64.9272 727.302 Q64.9272 735.832 59.9619 740.829 Q54.9967 745.794 46.5303 745.794 Q37.7774 745.794 32.6531 741.083 Q27.4968 736.341 27.4968 728.32 Q27.4968 721.127 32.1438 716.957 Q36.7589 712.756 44.7161 712.756 M42.9973 718.612 Q38.1912 718.676 35.3266 721.318 Q32.4621 723.928 32.4621 728.256 Q32.4621 733.158 35.2312 736.118 Q38.0002 739.046 43.0292 739.492 L42.9973 718.612 Z" fill="#000000" fill-rule="evenodd" fill-opacity="1" /><path clip-path="url(#clip750)" d="M28.3562 674.657 L45.7028 687.548 L64.0042 673.989 L64.0042 680.896 L49.9996 691.272 L64.0042 701.648 L64.0042 708.555 L45.3526 694.709 L28.3562 707.377 L28.3562 700.47 L41.0558 691.017 L28.3562 681.564 L28.3562 674.657 Z" fill="#000000" fill-rule="evenodd" fill-opacity="1" /><path clip-path="url(#clip750)" d="M44.7161 637.227 L47.5806 637.227 L47.5806 664.154 Q53.6281 663.772 56.8109 660.525 Q59.9619 657.247 59.9619 651.422 Q59.9619 648.049 59.1344 644.897 Q58.3069 641.715 56.6518 638.595 L62.1899 638.595 Q63.5267 641.746 64.227 645.057 Q64.9272 648.367 64.9272 651.772 Q64.9272 660.302 59.9619 665.3 Q54.9967 670.265 46.5303 670.265 Q37.7774 670.265 32.6531 665.554 Q27.4968 660.812 27.4968 652.791 Q27.4968 645.598 32.1438 641.428 Q36.7589 637.227 44.7161 637.227 M42.9973 643.083 Q38.1912 643.147 35.3266 645.789 Q32.4621 648.399 32.4621 652.727 Q32.4621 657.629 35.2312 660.589 Q38.0002 663.517 43.0292 663.963 L42.9973 643.083 Z" fill="#000000" fill-rule="evenodd" fill-opacity="1" /><path clip-path="url(#clip750)" d="M29.7248 601.961 L35.1993 601.961 Q33.8307 604.443 33.1623 606.958 Q32.4621 609.441 32.4621 611.987 Q32.4621 617.684 36.0905 620.835 Q39.6872 623.986 46.212 623.986 Q52.7369 623.986 56.3653 620.835 Q59.9619 617.684 59.9619 611.987 Q59.9619 609.441 59.2935 606.958 Q58.5933 604.443 57.2247 601.961 L62.6355 601.961 Q63.7814 604.412 64.3543 607.053 Q64.9272 609.663 64.9272 612.623 Q64.9272 620.676 59.8664 625.418 Q54.8057 630.161 46.212 630.161 Q37.491 630.161 32.4939 625.387 Q27.4968 620.58 27.4968 612.241 Q27.4968 609.536 28.0697 606.958 Q28.6108 604.38 29.7248 601.961 Z" fill="#000000" fill-rule="evenodd" fill-opacity="1" /><polyline clip-path="url(#clip752)" style="stroke:#009af9; stroke-linecap:round; stroke-linejoin:round; stroke-width:4; stroke-opacity:1; fill:none" points="
  294.087,1311.8 399.282,1311.74 504.477,1311.6 609.672,1311.45 714.867,84.9715 820.062,84.9286 925.258,84.7446 1030.45,84.9409 1135.65,84.8243 1240.84,84.7691 
  1346.04,84.0759 1451.23,84.9531 1556.43,84.7384 1661.62,84.628 1766.82,1308.75 1872.01,84.9102 1977.21,84.7507 2082.4,1163.27 2187.6,84.6403 2292.79,84.5483 
  
  "/>
<path clip-path="url(#clip750)" d="
M1995.67 194.304 L2282.13 194.304 L2282.13 90.6238 L1995.67 90.6238  Z
  " fill="#ffffff" fill-rule="evenodd" fill-opacity="1"/>
<polyline clip-path="url(#clip750)" style="stroke:#000000; stroke-linecap:round; stroke-linejoin:round; stroke-width:4; stroke-opacity:1; fill:none" points="
  1995.67,194.304 2282.13,194.304 2282.13,90.6238 1995.67,90.6238 1995.67,194.304 
  "/>
<polyline clip-path="url(#clip750)" style="stroke:#009af9; stroke-linecap:round; stroke-linejoin:round; stroke-width:4; stroke-opacity:1; fill:none" points="
  2019.21,142.464 2160.45,142.464 
  "/>
<path clip-path="url(#clip750)" d="M2202.41 134.582 L2202.41 138.61 Q2200.61 137.684 2198.66 137.221 Q2196.72 136.758 2194.64 136.758 Q2191.47 136.758 2189.87 137.73 Q2188.29 138.702 2188.29 140.647 Q2188.29 142.128 2189.43 142.985 Q2190.56 143.818 2193.99 144.582 L2195.45 144.906 Q2199.98 145.878 2201.88 147.661 Q2203.8 149.42 2203.8 152.591 Q2203.8 156.202 2200.93 158.309 Q2198.09 160.415 2193.09 160.415 Q2191 160.415 2188.73 159.998 Q2186.49 159.605 2183.99 158.795 L2183.99 154.397 Q2186.35 155.623 2188.64 156.248 Q2190.93 156.85 2193.18 156.85 Q2196.19 156.85 2197.81 155.832 Q2199.43 154.79 2199.43 152.915 Q2199.43 151.179 2198.25 150.253 Q2197.09 149.327 2193.13 148.471 L2191.65 148.123 Q2187.69 147.29 2185.93 145.577 Q2184.17 143.841 2184.17 140.832 Q2184.17 137.174 2186.77 135.184 Q2189.36 133.193 2194.13 133.193 Q2196.49 133.193 2198.57 133.54 Q2200.66 133.887 2202.41 134.582 Z" fill="#000000" fill-rule="evenodd" fill-opacity="1" /><path clip-path="url(#clip750)" d="M2229.2 146.804 Q2229.2 142.105 2227.25 139.443 Q2225.33 136.758 2221.95 136.758 Q2218.57 136.758 2216.63 139.443 Q2214.71 142.105 2214.71 146.804 Q2214.71 151.503 2216.63 154.188 Q2218.57 156.85 2221.95 156.85 Q2225.33 156.85 2227.25 154.188 Q2229.2 151.503 2229.2 146.804 M2214.71 137.753 Q2216.05 135.438 2218.09 134.327 Q2220.15 133.193 2222.99 133.193 Q2227.72 133.193 2230.65 136.943 Q2233.62 140.693 2233.62 146.804 Q2233.62 152.915 2230.65 156.665 Q2227.72 160.415 2222.99 160.415 Q2220.15 160.415 2218.09 159.304 Q2216.05 158.17 2214.71 155.855 L2214.71 159.744 L2210.42 159.744 L2210.42 123.725 L2214.71 123.725 L2214.71 137.753 Z" fill="#000000" fill-rule="evenodd" fill-opacity="1" /><path clip-path="url(#clip750)" d="M2257.21 134.582 L2257.21 138.61 Q2255.4 137.684 2253.46 137.221 Q2251.51 136.758 2249.43 136.758 Q2246.26 136.758 2244.66 137.73 Q2243.09 138.702 2243.09 140.647 Q2243.09 142.128 2244.22 142.985 Q2245.35 143.818 2248.78 144.582 L2250.24 144.906 Q2254.78 145.878 2256.67 147.661 Q2258.59 149.42 2258.59 152.591 Q2258.59 156.202 2255.72 158.309 Q2252.88 160.415 2247.88 160.415 Q2245.79 160.415 2243.53 159.998 Q2241.28 159.605 2238.78 158.795 L2238.78 154.397 Q2241.14 155.623 2243.43 156.248 Q2245.72 156.85 2247.97 156.85 Q2250.98 156.85 2252.6 155.832 Q2254.22 154.79 2254.22 152.915 Q2254.22 151.179 2253.04 150.253 Q2251.88 149.327 2247.92 148.471 L2246.44 148.123 Q2242.48 147.29 2240.72 145.577 Q2238.97 143.841 2238.97 140.832 Q2238.97 137.174 2241.56 135.184 Q2244.15 133.193 2248.92 133.193 Q2251.28 133.193 2253.36 133.54 Q2255.45 133.887 2257.21 134.582 Z" fill="#000000" fill-rule="evenodd" fill-opacity="1" /></svg>
